<?xml version="1.0" encoding="UTF-8" standalone="no"?>
<!DOCTYPE svg PUBLIC "-//W3C//DTD SVG 1.1//EN"
"http://www.w3.org/Graphics/SVG/1.1/DTD/svg11.dtd">
<svg xmlns="http://www.w3.org/2000/svg"
xmlns:xlink="http://www.w3.org/1999/xlink" xml:space="preserve"
width="5406pt" height="2216pt"
viewBox="0 0 5406 2216">
<style>
    a {
      cursor: pointer;
       user-select: none;
       color:black;
    }
  </style>
<g font-family="sans-serif" font-weight="bold">
<g transform="translate(0,0.17104) scale(0.49991) translate(1228.327,2194.24775)" stroke="#000000" fill="none">
<path d="M4982.9932,1458.8793 L2570.7582,1458.8793 2570.7582,949.617 4982.9932,949.617 z" fill="#000000"/>

<path d="M1859.9671,-1219.7164 L1112.216,-1219.7164 1112.216,-2159.5204 1859.9671,-2159.5204 z" fill="#000000"/>

<path d="M2589.2382,-1219.7164 L1841.4871,-1219.7164 1841.4871,-2159.5204 2589.2382,-2159.5204 z" fill="#000000"/>

<path d="M3342.8457,-1219.7164 L3079.8468,-1219.7164 3079.8468,-1411.5218 3342.8457,-1411.5218 z" fill="#000000"/>

<path d="M3981.3292,-1219.7164 L3634.6986,-1219.7164 3634.6986,-1650.1964 3981.3292,-1650.1964 z" fill="#000000"/>

<path d="M4312.073,-1219.7164 L3962.8492,-1219.7164 3962.8492,-1650.1964 4312.073,-1650.1964 z" fill="#000000"/>

<path d="M4857.3614,-1219.7164 L4594.3626,-1219.7164 4594.3626,-1411.5218 4857.3614,-1411.5218 z" fill="#000000"/>

<path d="M6441.5355,2225.8298 L5693.7843,2225.8298 5693.7843,949.617 6441.5355,949.617 z" fill="#000000"/>

<path d="M6274.3955,-1219.7164 L5526.6443,-1219.7164 5526.6443,-2159.5204 6274.3955,-2159.5204 z" fill="#000000"/>

<path d="M7003.6666,-1219.7164 L6255.9155,-1219.7164 6255.9155,-2159.5204 7003.6666,-2159.5204 z" fill="#000000"/>

<path d="M7676.3248,-1219.7164 L7245.8448,-1219.7164 7245.8448,-1650.1964 7676.3248,-1650.1964 z" fill="#000000"/>

<path d="M860.0042,-1219.7164 L498.7447,-1219.7164 498.7447,-1650.1964 860.0042,-1650.1964 z" fill="#000000"/>

<path d="M1859.8903,2237.8298 L1112.2159,2237.8298 1112.2159,961.617 1859.8903,961.617 z" fill="#000000"/>

<path d="M2589.2382,2237.8298 L1841.4871,2237.8298 1841.4871,961.617 2589.2382,961.617 z" fill="#000000"/>

<path d="M5712.2643,2225.8298 L4964.5132,2225.8298 4964.5132,949.617 5712.2643,949.617 z" fill="#000000"/>

<path d="M151.9518,2217.3618 L-1227.9215,2217.3618 -1227.9215,961.617 151.9518,961.617 z" fill="#000000"/>

<path d="M151.9518,-883.1313 L-1227.9215,-883.1313 -1227.9215,-2138.8761 151.9518,-2138.8761 z" fill="#000000"/>

<path d="M151.9519,968.097 L-1227.9214,968.097 -1227.9214,-901.6113 151.9519,-901.6113 z" fill="#000000"/>

<path d="M9585.5315,2229.3618 L8205.6582,2229.3618 8205.6582,973.617 9585.5315,973.617 z" fill="#000000"/>

<path d="M9585.5315,-883.1313 L8205.6582,-883.1313 8205.6582,-2138.8761 9585.5315,-2138.8761 z" fill="#000000"/>

<path d="M1130.6959,-1226.1964 L1841.4871,-1226.1964 1841.4871,-1238.1964 8212.1382,-1238.1964 8212.1382,-889.6113 8224.1382,-889.6113 8224.1382,968.097 133.4719,968.097 133.4719,-1238.1964 1130.6959,-1238.1964 z" fill="#000000"/>

<path d="M9585.4878,968.097 L8205.6582,968.097 8205.6582,-889.6113 9585.4878,-889.6113 z" fill="#000000"/>
</g><g transform="translate(0,0.17104) scale(0.49991) translate(1228.327,2194.24775)" stroke="#ffffff" fill="none">
<path d="M2585.9982,1443.6393 L4967.7532,1443.6393 4967.7532,964.857 4967.7531,964.857 4967.7531,952.857 4347.1526,952.857 4347.1526,964.857 4347.1525,964.857 4347.1525,952.857 3936.5869,952.857 3936.5869,964.857 3936.5085,964.857 3936.5085,952.857 2585.9982,952.857 2585.9982,964.857 z" fill="#ffffff"/>

<path d="M1844.7271,-2144.2804 L1127.456,-2144.2804 1127.456,-1234.9564 1127.456,-1234.9564 1127.456,-1210.9564 1844.7271,-1210.9564 1844.7271,-1234.9564 z" fill="#ffffff"/>

<path d="M2573.9982,-2144.2804 L1856.7271,-2144.2804 1856.7271,-1234.9564 1856.7271,-1234.9564 1856.7271,-1222.9564 2573.9982,-1222.9564 2573.9982,-1234.9564 z" fill="#ffffff"/>

<path d="M3327.6057,-1396.2818 L3095.0868,-1396.2818 3095.0868,-1234.9564 3327.6057,-1234.9564 z" fill="#ffffff"/>

<path d="M3649.9386,-1634.9564 L3649.9386,-1234.9564 3966.0892,-1234.9564 3966.0892,-1634.9564 z" fill="#ffffff"/>

<path d="M3978.0892,-1634.9564 L3978.0892,-1234.9564 4296.833,-1234.9564 4296.833,-1634.9564 z" fill="#ffffff"/>

<path d="M4842.1214,-1396.2818 L4609.6026,-1396.2818 4609.6026,-1234.9564 4842.1214,-1234.9564 z" fill="#ffffff"/>

<path d="M5709.0243,2210.5898 L6426.2955,2210.5898 6426.2955,964.857 6426.2955,964.857 6426.2955,952.857 5709.0243,952.857 5709.0243,964.857 z" fill="#ffffff"/>

<path d="M6259.1555,-2144.2804 L5541.8843,-2144.2804 5541.8843,-1234.9564 5541.8843,-1234.9564 5541.8843,-1222.9564 6259.1555,-1222.9564 6259.1555,-1234.9564 z" fill="#ffffff"/>

<path d="M6988.4266,-2144.2805 L6271.1555,-2144.2805 6271.1555,-1234.9564 6271.1555,-1234.9564 6271.1555,-1222.9564 6988.4266,-1222.9564 6988.4266,-1234.9564 z" fill="#ffffff"/>

<path d="M7261.0848,-1634.9564 L7261.0848,-1234.9564 7661.0848,-1234.9564 7661.0848,-1634.9564 z" fill="#ffffff"/>

<path d="M513.9847,-1634.9564 L513.9847,-1234.9564 844.7642,-1234.9564 844.7642,-1634.9564 z" fill="#ffffff"/>

<path d="M1127.4559,2222.5898 L1844.6503,2222.5898 1844.6503,976.857 1844.6503,952.857 1127.4559,952.857 1127.4559,976.857 z" fill="#ffffff"/>

<path d="M1856.7271,2222.5898 L2573.9982,2222.5898 2573.9982,976.857 2573.9982,976.857 2573.9982,952.857 1856.7271,952.857 1856.7271,976.857 z" fill="#ffffff"/>

<path d="M4979.7532,2210.5898 L5697.0243,2210.5898 5697.0243,964.857 5697.0243,964.857 5697.0243,952.857 4979.7532,952.857 4979.7532,964.857 z" fill="#ffffff"/>

<path d="M136.7118,2202.1218 L136.7118,976.857 136.7118,952.857 -167.6555,952.857 -167.6555,976.857 -1212.6815,976.857 -1212.6815,2202.1218 z" fill="#ffffff"/>

<path d="M-1212.6815,-2123.6361 L-1212.6815,-898.3713 -167.6556,-898.3713 -167.6556,-886.3713 136.7118,-886.3713 136.7118,-898.3713 136.7118,-2123.6361 z" fill="#ffffff"/>

<path d="M136.7119,952.857 L136.7119,295.6961 148.7119,295.6961 148.7119,-245.2889 136.7119,-245.2889 136.7119,-886.3713 136.7119,-898.3713 -1212.6814,-898.3713 -1212.6814,-886.3713 -1212.6814,952.857 -1212.6814,952.857 -1212.6814,976.857 136.7119,976.857 136.7119,952.857 z" fill="#ffffff"/>

<path d="M9570.2915,2214.1218 L9570.2915,988.857 9570.2915,973.617 8220.8982,973.617 8220.8982,988.857 8220.8982,2214.1218 z" fill="#ffffff"/>

<path d="M8220.8982,-2123.6361 L8220.8982,-898.3713 8220.8982,-874.3713 8525.2656,-874.3713 8525.2656,-898.3713 8232.8983,-898.3713 8232.8983,-874.3713 9570.2915,-874.3713 9570.2915,-898.3713 9570.2915,-2123.6361 z" fill="#ffffff"/>

<path d="M1115.4559,-1210.9564 L1115.4559,-1222.9564 793.3671,-1222.9564 793.3671,-1234.9564 558.7668,-1234.9564 558.7668,-1222.9564 148.7119,-1222.9564 148.7119,952.857 408.9264,952.857 408.9264,968.097 861.0772,968.097 861.0772,952.857 6867.9118,952.857 6867.9118,968.097 7620.1079,968.097 7620.1079,952.857 8208.8982,952.857 8208.8982,-874.3713 8196.8982,-874.3713 8196.8982,-1222.9564 7614.0033,-1222.9564 7614.0033,-1234.9564 7293.1243,-1234.9564 7293.1243,-1222.9564 4838.206,-1222.9564 4838.206,-1234.9564 4757.0504,-1234.9564 4757.0504,-1222.9564 4297.6444,-1222.9564 4297.6444,-1234.9564 3978.4412,-1234.9564 3978.4412,-1222.9564 3966.2283,-1222.9564 3966.2283,-1234.9564 3650.1976,-1234.9564 3650.1976,-1222.9564 3157.9856,-1222.9564 3157.9856,-1234.9564 3093.427,-1234.9564 3093.427,-1222.9564 1856.7271,-1222.9564 1856.7271,-1210.9564 z" fill="#ffffff"/>

<path d="M9570.2478,952.857 L9570.2478,-874.3713 8220.8982,-874.3713 8220.8982,-245.2889 8208.8982,-245.2889 8208.8982,295.6961 8220.8982,295.6961 8220.8982,952.857 8220.8982,968.097 9570.2041,968.097 9570.2041,952.857 z" fill="#ffffff"/>
</g><g transform="translate(0,0.17104) scale(0.49991) translate(1228.327,2194.24775)" stroke="#000000" stroke-width="1.80031" fill="none">
<path d="M1604.4987,-1920.8854 L1592.4967,-1920.8854 1592.4967,-2144.2814 1604.4987,-2144.2814 z" fill="#000000"/>

<path d="M1669.8414,-1908.8854 L1592.4967,-1908.8854 1592.4967,-1920.8874 1669.8414,-1920.8874 z M1844.7281,-1908.8854 L1780.2472,-1908.8854 1780.2472,-1920.8874 1844.7281,-1920.8874 z" fill="#000000"/>

<path d="M1364.2692,-1920.8854 L1352.2672,-1920.8854 1352.2672,-2144.2814 1364.2692,-2144.2814 z" fill="#000000"/>

<path d="M1423.1801,-1908.8854 L1352.2672,-1908.8854 1352.2672,-1920.8874 1423.1801,-1920.8874 z M1604.4987,-1908.8854 L1533.5858,-1908.8854 1533.5858,-1920.8874 1604.4987,-1920.8874 z" fill="#000000"/>

<path d="M1182.9506,-1908.8854 L1112.0378,-1908.8854 1112.0378,-1920.8874 1182.9506,-1920.8874 z M1364.2692,-1908.8854 L1293.3564,-1908.8854 1293.3564,-1920.8874 1364.2692,-1920.8874 z" fill="#000000"/>

<path d="M1124.0398,-1920.8854 L1112.0378,-1920.8854 1112.0378,-2144.2814 1124.0398,-2144.2814 z" fill="#000000"/>

<path d="M2333.7698,-1920.8854 L2321.7678,-1920.8854 2321.7678,-2144.2814 2333.7698,-2144.2814 z" fill="#000000"/>

<path d="M2399.1125,-1908.8854 L2321.7678,-1908.8854 2321.7678,-1920.8874 2399.1125,-1920.8874 z M2573.9992,-1908.8854 L2509.5183,-1908.8854 2509.5183,-1920.8874 2573.9992,-1920.8874 z" fill="#000000"/>

<path d="M2093.5404,-1920.8854 L2081.5384,-1920.8854 2081.5384,-2144.2814 2093.5404,-2144.2814 z" fill="#000000"/>

<path d="M2152.4512,-1908.8854 L2081.5384,-1908.8854 2081.5384,-1920.8874 2152.4512,-1920.8874 z M2333.7698,-1908.8854 L2262.857,-1908.8854 2262.857,-1920.8874 2333.7698,-1920.8874 z" fill="#000000"/>

<path d="M1912.2218,-1908.8854 L1841.3089,-1908.8854 1841.3089,-1920.8874 1912.2218,-1920.8874 z M2093.5404,-1908.8854 L2022.6275,-1908.8854 2022.6275,-1920.8874 2093.5404,-1920.8874 z" fill="#000000"/>

<path d="M1853.3109,-1920.8854 L1841.3089,-1920.8854 1841.3089,-2144.2814 1853.3109,-2144.2814 z" fill="#000000"/>

<path d="M6441.7136,1874.182 L6429.7116,1874.182 6429.7116,1650.786 6441.7136,1650.786 z" fill="#000000"/>

<path d="M6018.927,-1920.8854 L6006.925,-1920.8854 6006.925,-2144.2814 6018.927,-2144.2814 z" fill="#000000"/>

<path d="M6084.2697,-1908.8854 L6006.925,-1908.8854 6006.925,-1920.8874 6084.2697,-1920.8874 z M6259.1564,-1908.8854 L6194.6755,-1908.8854 6194.6755,-1920.8874 6259.1564,-1920.8874 z" fill="#000000"/>

<path d="M5778.6976,-1920.8854 L5766.6956,-1920.8854 5766.6956,-2144.2814 5778.6976,-2144.2814 z" fill="#000000"/>

<path d="M5837.6084,-1908.8854 L5766.6956,-1908.8854 5766.6956,-1920.8874 5837.6084,-1920.8874 z M6018.927,-1908.8854 L5948.0142,-1908.8854 5948.0142,-1920.8874 6018.927,-1920.8874 z" fill="#000000"/>

<path d="M5597.379,-1908.8854 L5526.4661,-1908.8854 5526.4661,-1920.8874 5597.379,-1920.8874 z M5778.6976,-1908.8854 L5707.7848,-1908.8854 5707.7848,-1920.8874 5778.6976,-1920.8874 z" fill="#000000"/>

<path d="M5538.4682,-1920.8854 L5526.4662,-1920.8854 5526.4662,-2144.2814 5538.4682,-2144.2814 z" fill="#000000"/>

<path d="M6748.1981,-1920.8854 L6736.1961,-1920.8854 6736.1961,-2144.2814 6748.1981,-2144.2814 z" fill="#000000"/>

<path d="M6813.5409,-1908.8854 L6736.1961,-1908.8854 6736.1961,-1920.8874 6813.5409,-1920.8874 z M6988.4276,-1908.8854 L6923.9466,-1908.8854 6923.9466,-1920.8874 6988.4276,-1920.8874 z" fill="#000000"/>

<path d="M6507.9687,-1920.8854 L6495.9667,-1920.8854 6495.9667,-2144.2814 6507.9687,-2144.2814 z" fill="#000000"/>

<path d="M6566.8795,-1908.8854 L6495.9667,-1908.8854 6495.9667,-1920.8874 6566.8795,-1920.8874 z M6748.1981,-1908.8854 L6677.2853,-1908.8854 6677.2853,-1920.8874 6748.1981,-1920.8874 z" fill="#000000"/>

<path d="M6326.6501,-1908.8854 L6255.7373,-1908.8854 6255.7373,-1920.8874 6326.6501,-1920.8874 z M6507.9687,-1908.8854 L6437.0559,-1908.8854 6437.0559,-1920.8874 6507.9687,-1920.8874 z" fill="#000000"/>

<path d="M6267.7393,-1920.8854 L6255.7373,-1920.8854 6255.7373,-2144.2814 6267.7393,-2144.2814 z" fill="#000000"/>

<path d="M1379.6864,2222.5908 L1367.6844,2222.5908 1367.6844,1987.6914 1379.6864,1987.6914 z" fill="#000000"/>

<path d="M1191.9359,1987.6934 L1127.4549,1987.6934 1127.4549,1975.6914 1191.9359,1975.6914 z M1379.6864,1987.6934 L1302.3416,1987.6934 1302.3416,1975.6914 1379.6864,1975.6914 z" fill="#000000"/>

<path d="M1643.9156,1975.7556 L1642.5947,2222.655 1630.5929,2222.5908 1631.9138,1975.6914 z" fill="#000000"/>

<path d="M1450.5972,1987.6934 L1379.6844,1987.6934 1379.6844,1975.6914 1450.5972,1975.6914 z M1631.9158,1987.6934 L1561.003,1987.6934 1561.003,1975.6914 1631.9158,1975.6914 z" fill="#000000"/>

<path d="M1663.4095,1987.6934 L1592.4966,1987.6934 1592.4966,1975.6914 1663.4095,1975.6914 z M1844.7281,1987.6934 L1773.8152,1987.6934 1773.8152,1975.6914 1844.7281,1975.6914 z" fill="#000000"/>

<path d="M2108.9575,2222.5908 L2096.9555,2222.5908 2096.9555,1987.6914 2108.9575,1987.6914 z" fill="#000000"/>

<path d="M1921.207,1987.6934 L1856.7261,1987.6934 1856.7261,1975.6914 1921.207,1975.6914 z M2108.9575,1987.6934 L2031.6128,1987.6934 2031.6128,1975.6914 2108.9575,1975.6914 z" fill="#000000"/>

<path d="M2373.1867,1975.7556 L2371.8659,2222.655 2359.8641,2222.5908 2361.1849,1975.6914 z" fill="#000000"/>

<path d="M2179.8683,1987.6934 L2108.9555,1987.6934 2108.9555,1975.6914 2179.8683,1975.6914 z M2361.1869,1987.6934 L2290.2741,1987.6934 2290.2741,1975.6914 2361.1869,1975.6914 z" fill="#000000"/>

<path d="M2392.6806,1987.6934 L2321.7678,1987.6934 2321.7678,1975.6914 2392.6806,1975.6914 z M2573.9992,1987.6934 L2503.0864,1987.6934 2503.0864,1975.6914 2573.9992,1975.6914 z" fill="#000000"/>

<path d="M2589.4164,1886.182 L2577.4144,1886.182 2577.4144,1662.786 2589.4164,1662.786 z" fill="#000000"/>

<path d="M-280.5957,1777.7706 L-811.181,1778.3511 -811.1942,1766.3491 -280.6088,1765.7686 z" fill="#000000"/>

<path d="M-811.179,1778.3511 L-1212.6825,1778.3511 -1212.6825,1766.3491 -811.179,1766.3491 z" fill="#000000"/>

<path d="M136.8688,1772.3448 L-280.4548,1777.7696 -280.6108,1765.7686 136.7128,1760.3438 z" fill="#000000"/>

<path d="M-823.1657,2202.1228 L-835.1677,2202.1228 -835.1677,1778.3491 -823.1657,1778.3491 z" fill="#000000"/>

<path d="M-280.6088,2202.1228 L-292.6108,2202.1228 -292.6108,1765.7686 -280.6088,1765.7686 z" fill="#000000"/>

<path d="M-280.5957,-1699.2849 L-280.6088,-1687.2829 -811.1942,-1687.8634 -811.181,-1699.8654 z" fill="#000000"/>

<path d="M-811.179,-1687.8634 L-1212.6825,-1687.8634 -1212.6825,-1699.8654 -811.179,-1699.8654 z" fill="#000000"/>

<path d="M136.8688,-1693.8591 L136.7128,-1681.8581 -280.6108,-1687.2829 -280.4548,-1699.2839 z" fill="#000000"/>

<path d="M-823.1657,-1699.8634 L-835.1677,-1699.8634 -835.1677,-2123.6371 -823.1657,-2123.6371 z" fill="#000000"/>

<path d="M-280.6088,-1687.2829 L-292.6108,-1687.2829 -292.6108,-2123.6371 -280.6088,-2123.6371 z" fill="#000000"/>

<path d="M-165.9575,952.858 L-177.9595,952.858 -177.9595,-902.4928 -165.9575,-902.4928 z" fill="#000000"/>

<path d="M-177.9575,37.495 L-1228.327,37.495 -1228.327,25.493 -177.9575,25.493 z" fill="#000000"/>

<path d="M9168.8042,1778.3491 L9168.7911,1790.3511 8638.2058,1789.7706 8638.2189,1777.7686 z" fill="#000000"/>

<path d="M9570.2925,1790.3511 L9168.7891,1790.3511 9168.7891,1778.3491 9570.2925,1778.3491 z" fill="#000000"/>

<path d="M8638.2209,1777.7686 L8638.0649,1789.7696 8220.7412,1784.3448 8220.8972,1772.3438 z" fill="#000000"/>

<path d="M9192.7778,2214.1228 L9180.7758,2214.1228 9180.7758,1790.3491 9192.7778,1790.3491 z" fill="#000000"/>

<path d="M8650.2209,2214.1228 L8638.2189,2214.1228 8638.2189,1777.7686 8650.2209,1777.7686 z" fill="#000000"/>

<path d="M9168.8042,-1687.8635 L8638.2189,-1687.2829 8638.2058,-1699.2849 9168.7911,-1699.8654 z" fill="#000000"/>

<path d="M9570.2925,-1687.8634 L9168.7891,-1687.8634 9168.7891,-1699.8654 9570.2925,-1699.8654 z" fill="#000000"/>

<path d="M8638.2209,-1687.2829 L8220.8972,-1681.8581 8220.7412,-1693.8591 8638.0649,-1699.2839 z" fill="#000000"/>

<path d="M9192.7778,-1699.8634 L9180.7758,-1699.8634 9180.7758,-2123.6371 9192.7778,-2123.6371 z" fill="#000000"/>

<path d="M8650.2209,-1687.2829 L8638.2189,-1687.2829 8638.2189,-2123.6371 8650.2209,-2123.6371 z" fill="#000000"/>

<path d="M1125.0948,957.2167 L1113.0928,957.2167 1113.0928,778.4243 1125.0948,778.4243 z M1125.0948,543.824 L1113.0928,543.824 1113.0928,538.8653 1125.0948,538.8653 z" fill="#000000"/>

<path d="M2585.9992,538.8672 L1113.0928,538.8673 1113.0928,526.8653 2585.9992,526.8652 z" fill="#000000"/>

<path d="M2585.9992,964.858 L2573.9972,964.858 2573.9972,751.8616 2585.9992,751.8616 z M2585.9992,566.5324 L2573.9972,566.5324 2573.9972,538.8652 2585.9992,538.8652 z" fill="#000000"/>

<path d="M2574.5549,-799.924 L2574.5327,-787.922 1115.4327,-790.6251 1115.4549,-802.6271 z" fill="#000000"/>

<path d="M1856.7281,964.858 L1844.7261,964.858 1844.7261,526.8653 1856.7281,526.8653 z" fill="#000000"/>

<path d="M2586.4562,-790.6251 L2574.4542,-790.6251 2574.4542,-856.5805 2586.4562,-856.5805 z M2586.4562,-1057.1981 L2574.4542,-1057.1981 2574.4542,-1222.9574 2586.4562,-1222.9574 z" fill="#000000"/>

<path d="M1856.7329,-796.6269 L1844.7309,-796.6269 1844.7309,-1223.0811 1856.7329,-1223.0811 z" fill="#000000"/>

<path d="M2969.3148,-799.1539 L2957.3128,-799.1539 2957.3128,-1222.9574 2969.3148,-1222.9574 z" fill="#000000"/>

<path d="M2975.2469,-787.1539 L2957.3128,-787.1539 2957.3128,-799.1559 2975.2469,-799.1559 z M3335.4804,-787.1539 L3095.5628,-787.1539 3095.5628,-799.1559 3335.4804,-799.1559 z" fill="#000000"/>

<path d="M3344.3447,-787.1539 L3332.3427,-787.1539 3332.3427,-1238.1315 3344.3447,-1238.1315 z" fill="#000000"/>

<path d="M3644.3447,-1002.2945 L3344.3427,-1002.2945 3344.3427,-1014.2965 3644.3447,-1014.2965 z" fill="#000000"/>

<path d="M3978.4211,-783.5179 L3966.4191,-783.5179 3966.4191,-1222.9574 3978.4211,-1222.9574 z" fill="#000000"/>

<path d="M3648.8362,-783.5179 L3636.8342,-783.5179 3636.8342,-1222.9574 3648.8362,-1222.9574 z" fill="#000000"/>

<path d="M3645.0403,-783.5179 L3636.8342,-783.5179 3636.8342,-795.5199 3645.0403,-795.5199 z M3969.2771,-783.5179 L3961.071,-783.5179 3961.071,-795.5199 3969.2771,-795.5199 z" fill="#000000"/>

<path d="M3979.2761,-783.5179 L3979.2751,-783.5179 3979.2751,-795.5199 3979.2761,-795.5199 z M4311.7179,-783.5179 L4295.3067,-783.5179 4295.3067,-795.5199 4311.7179,-795.5199 z" fill="#000000"/>

<path d="M4311.7179,-783.5179 L4299.7159,-783.5179 4299.7159,-1222.9574 4311.7179,-1222.9574 z" fill="#000000"/>

<path d="M4599.7179,-987.7627 L4299.7159,-987.7627 4299.7159,-999.7646 4599.7179,-999.7646 z" fill="#000000"/>

<path d="M4607.151,-783.9798 L4595.149,-783.9798 4595.149,-1222.9574 4607.151,-1222.9574 z" fill="#000000"/>

<path d="M4985.3166,-783.9798 L4607.149,-783.9798 4607.149,-795.9818 4985.3166,-795.9818 z" fill="#000000"/>

<path d="M4985.3166,-783.9798 L4973.3146,-783.9798 4973.3146,-943.3106 4985.3166,-943.3106 z M4985.3166,-1063.6265 L4973.3146,-1063.6265 4973.3146,-1222.9574 4985.3166,-1222.9574 z" fill="#000000"/>

<path d="M6989.5872,-791.6025 L6989.5511,-779.6005 6989.5501,-779.6005 6989.5861,-791.6025 z M6782.4592,-792.2255 L6782.4232,-780.2235 5533.6137,-783.9798 5533.6498,-795.9817 z" fill="#000000"/>

<path d="M8208.8992,-874.3703 L7937.3608,-874.3703 7937.3608,-886.3723 8208.8992,-886.3723 z" fill="#000000"/>

<path d="M7949.3615,-874.5472 L7937.3608,-874.3703 7932.2228,-1222.9574 7944.2235,-1223.1343 z" fill="#000000"/>

<path d="M445.3213,-959.1444 L433.3193,-959.1444 433.3193,-1222.9574 445.3213,-1222.9574 z" fill="#000000"/>

<path d="M445.3213,-947.1444 L145.3193,-947.1444 145.3193,-959.1464 445.3213,-959.1464 z" fill="#000000"/>

<path d="M6438.2965,604.869 L4982.8779,606.2126 4982.8668,594.2106 6438.2854,592.867 z" fill="#000000"/>

<path d="M4980.954,822.588 L4979.7542,964.858 4967.7526,964.7568 4968.9524,822.4869 z M4982.8799,594.2106 L4982.5168,637.2655 4970.5152,637.1643 4970.8783,594.1094 z" fill="#000000"/>

<path d="M6270.8454,-792.2363 L6258.8434,-792.2363 6258.8434,-1222.9574 6270.8454,-1222.9574 z" fill="#000000"/>

<path d="M5709.0253,964.858 L5697.0233,964.858 5697.0233,606.2106 5709.0253,606.2106 z" fill="#000000"/>

<path d="M6438.2965,964.858 L6426.2945,964.858 6426.2945,845.8594 6438.2965,845.8594 z M6438.2965,668.5543 L6426.2945,668.5543 6426.2945,604.867 6438.2965,604.867 z" fill="#000000"/>

<path d="M7001.5511,-779.6005 L6989.5491,-779.6005 6989.5491,-1222.9574 7001.5511,-1222.9574 z" fill="#000000"/>

<path d="M5545.6153,-784.0791 L5533.6137,-783.9798 5533.6137,-783.9808 5545.6153,-784.08 z M5543.902,-991.2008 L5531.9004,-991.1016 5529.8833,-1234.9574 5541.8849,-1235.0567 z" fill="#000000"/>

<path d="M1127.4375,-845.1236 L1127.4347,-790.6245 1115.4327,-790.6251 1115.4355,-845.1242 z M1127.4569,-1222.9568 L1127.4478,-1045.7411 1115.4458,-1045.7418 1115.4549,-1222.9574 z" fill="#000000"/>

<path d="M8535.5696,988.858 L8523.5676,988.858 8523.5676,-902.4928 8535.5696,-902.4928 z" fill="#000000"/>

<path d="M9570.2488,-511.4542 L8519.8793,-511.4542 8519.8793,-523.4562 9570.2488,-523.4562 z" fill="#000000"/>

<path d="M9570.2925,567.1869 L8523.5676,567.1869 8523.5676,555.1849 9570.2925,555.1849 z" fill="#000000"/>
</g><g transform="translate(0,0.17104) scale(0.49991) translate(1228.327,2194.24775)" stroke="#111111" stroke-width="1.80031" fill="none">
<path d="M2573.9972,566.5324 L2573.9972,538.8672 1856.7281,538.8672 1856.7281,964.858 1856.7271,964.858 1856.7271,1975.6914 1921.207,1975.6914 1921.207,1987.6934 1856.7271,1987.6934 1856.7271,2222.5898 2096.9555,2222.5898 2096.9555,1987.6934 2031.6128,1987.6934 2031.6128,1975.6914 2179.8683,1975.6914 2179.8683,1987.6934 2108.9575,1987.6934 2108.9575,2222.5898 2359.8641,2222.5898 2361.1207,1987.6934 2290.2741,1987.6934 2290.2741,1975.6914 2392.6806,1975.6914 2392.6806,1987.6934 2373.1228,1987.6934 2371.8662,2222.5898 2573.9982,2222.5898 2573.9982,1987.6934 2503.0864,1987.6934 2503.0864,1975.6914 2573.9982,1975.6914 2573.9982,964.858 2573.9972,964.858 2573.9972,751.8616 2585.9992,751.8616 2585.9992,964.858 2585.9982,964.858 2585.9982,1443.6393 4967.7532,1443.6393 4967.7532,964.857 4967.7531,964.857 4967.7531,964.7568 4967.7526,964.7568 4967.7531,964.6975 4967.7531,952.857 4967.853,952.857 4968.9524,822.4869 4980.954,822.588 4979.7542,964.858 4979.7532,964.858 4979.7532,2210.5898 5697.0243,2210.5898 5697.0243,964.858 5697.0233,964.858 5697.0233,606.2106 5709.0253,606.2106 5709.0253,964.858 5709.0243,964.858 5709.0243,2210.5898 6426.2955,2210.5898 6426.2955,964.858 6426.2945,964.858 6426.2945,845.8594 6438.2965,845.8594 6438.2965,952.857 6867.9118,952.857 6867.9118,968.097 6441.5355,968.097 6441.5355,1650.786 6441.7136,1650.786 6441.7136,1874.182 6441.5355,1874.182 6441.5355,2225.8298 4964.5132,2225.8298 4964.5132,1458.8793 2589.2382,1458.8793 2589.2382,1662.786 2589.4164,1662.786 2589.4164,1886.182 2589.2382,1886.182 2589.2382,2237.8298 1112.2159,2237.8298 1112.2159,968.097 861.0772,968.097 861.0772,952.857 1113.0928,952.857 1113.0928,778.4243 1125.0948,778.4243 1125.0948,952.857 1127.4559,952.857 1127.4559,1975.6914 1191.9359,1975.6914 1191.9359,1987.6934 1127.4559,1987.6934 1127.4559,2222.5898 1367.6844,2222.5898 1367.6844,1987.6934 1302.3416,1987.6934 1302.3416,1975.6914 1450.5972,1975.6914 1450.5972,1987.6934 1379.6864,1987.6934 1379.6864,2222.5898 1630.5929,2222.5898 1631.8496,1987.6934 1561.003,1987.6934 1561.003,1975.6914 1663.4095,1975.6914 1663.4095,1987.6934 1643.8517,1987.6934 1642.595,2222.5898 1844.6503,2222.5898 1844.6503,1987.6934 1773.8152,1987.6934 1773.8152,1975.6914 1844.6503,1975.6914 1844.6503,952.857 1844.7261,952.857 1844.7261,538.8673 1125.0948,538.8673 1125.0948,543.824 1113.0928,543.824 1113.0928,526.8653 2585.9992,526.8652 2585.9992,566.5324 z M8220.8982,1772.3438 L8638.2209,1777.7686 8650.2209,1777.7686 8650.2209,1777.7817 9168.8042,1778.3491 9570.2915,1778.3491 9570.2915,973.617 9585.5315,973.617 9585.5315,2229.3618 8205.6582,2229.3618 8205.6582,973.617 8220.8982,973.617 z M6989.5491,-1222.9564 L6988.4266,-1222.9564 6988.4266,-1908.8854 6923.9466,-1908.8854 6923.9466,-1920.8874 6988.4266,-1920.8874 6988.4266,-2144.2805 6748.1981,-2144.2805 6748.1981,-1920.8874 6813.5409,-1920.8874 6813.5409,-1908.8854 6677.2853,-1908.8854 6677.2853,-1920.8874 6736.1961,-1920.8874 6736.1961,-2144.2805 6507.9687,-2144.2805 6507.9687,-1920.8874 6566.8795,-1920.8874 6566.8795,-1908.8854 6437.0559,-1908.8854 6437.0559,-1920.8874 6495.9667,-1920.8874 6495.9667,-2144.2805 6271.1555,-2144.2805 6271.1555,-1920.8874 6326.6501,-1920.8874 6326.6501,-1908.8854 6271.1555,-1908.8854 6271.1555,-1222.9564 6270.8454,-1222.9564 6270.8454,-793.7643 6782.4592,-792.2255 6782.4232,-780.2235 5533.6137,-783.9798 5533.6498,-795.9817 6258.8434,-793.8004 6258.8434,-1222.9574 6259.1555,-1222.9574 6259.1555,-1908.8854 6194.6755,-1908.8854 6194.6755,-1920.8874 6255.7373,-1920.8874 6255.7373,-2144.2804 6018.927,-2144.2804 6018.927,-1920.8874 6084.2697,-1920.8874 6084.2697,-1908.8854 5948.0142,-1908.8854 5948.0142,-1920.8874 6006.925,-1920.8874 6006.925,-2144.2804 5778.6976,-2144.2804 5778.6976,-1920.8874 5837.6084,-1920.8874 5837.6084,-1908.8854 5707.7848,-1908.8854 5707.7848,-1920.8874 5766.6956,-1920.8874 5766.6956,-2144.2804 5541.8843,-2144.2804 5541.8843,-1920.8874 5597.379,-1920.8874 5597.379,-1908.8854 5541.8843,-1908.8854 5541.8843,-1235.0567 5541.8849,-1235.0567 5543.902,-991.2008 5531.9004,-991.1016 5529.9826,-1222.9564 4985.3166,-1222.9564 4985.3166,-1063.6265 4973.3146,-1063.6265 4973.3146,-1222.9564 4838.206,-1222.9564 4838.206,-1234.9564 4842.1214,-1234.9564 4842.1214,-1396.2818 4609.6026,-1396.2818 4609.6026,-1234.9564 4757.0504,-1234.9564 4757.0504,-1222.9564 4607.151,-1222.9564 4607.151,-795.9818 4973.3146,-795.9818 4973.3146,-943.3106 4985.3166,-943.3106 4985.3166,-783.9798 4595.149,-783.9798 4595.149,-987.7627 4311.7179,-987.7627 4311.7179,-783.5179 4295.3067,-783.5179 4295.3067,-795.5199 4299.7159,-795.5199 4299.7159,-1222.9564 4297.6444,-1222.9564 4297.6444,-1234.9764 4296.833,-1234.9764 4296.833,-1634.9564 3978.0892,-1634.9564 3978.0892,-1234.9564 3978.4412,-1234.9564 3978.4412,-1222.9564 3978.4211,-1222.9564 3978.4211,-783.5179 3961.071,-783.5179 3961.071,-795.5199 3966.4191,-795.5199 3966.4191,-1222.9564 3966.2283,-1222.9564 3966.2283,-1234.9764 3966.0892,-1234.9764 3966.0892,-1634.9564 3649.9386,-1634.9564 3649.9386,-1234.9564 3650.1976,-1234.9564 3650.1976,-1222.9564 3648.8362,-1222.9564 3648.8362,-783.5179 3636.8342,-783.5179 3636.8342,-1002.2945 3344.3447,-1002.2945 3344.3447,-787.1539 3095.5628,-787.1539 3095.5628,-799.1559 3332.3427,-799.1559 3332.3427,-1222.9564 3157.9856,-1222.9564 3157.9856,-1234.9564 3327.6057,-1234.9564 3327.6057,-1396.2818 3095.0868,-1396.2818 3095.0868,-1234.9764 3093.427,-1234.9764 3093.427,-1222.9564 2969.3148,-1222.9564 2969.3148,-799.1559 2975.2469,-799.1559 2975.2469,-787.1539 2957.3128,-787.1539 2957.3128,-1222.9564 2586.4562,-1222.9564 2586.4562,-1057.1981 2574.4542,-1057.1981 2574.4542,-1222.9564 2573.9982,-1222.9564 2573.9982,-1908.8854 2509.5183,-1908.8854 2509.5183,-1920.8874 2573.9982,-1920.8874 2573.9982,-2144.2804 2333.7698,-2144.2804 2333.7698,-1920.8874 2399.1125,-1920.8874 2399.1125,-1908.8854 2262.857,-1908.8854 2262.857,-1920.8874 2321.7678,-1920.8874 2321.7678,-2144.2804 2093.5404,-2144.2804 2093.5404,-1920.8874 2152.4512,-1920.8874 2152.4512,-1908.8854 2022.6275,-1908.8854 2022.6275,-1920.8874 2081.5384,-1920.8874 2081.5384,-2144.2804 1856.7271,-2144.2804 1856.7271,-1920.8874 1912.2218,-1920.8874 1912.2218,-1908.8854 1856.7271,-1908.8854 1856.7271,-1223.0811 1856.7329,-1223.0811 1856.7329,-801.2538 2574.4542,-799.9242 2574.4542,-856.5805 2586.4562,-856.5805 2586.4562,-790.6251 2574.5377,-790.6251 2574.5327,-787.922 1115.4327,-790.6251 1115.4355,-845.1242 1127.4375,-845.1236 1127.4353,-802.6049 1844.7309,-801.2761 1844.7309,-1210.9564 1844.7271,-1210.9564 1844.7271,-1908.8854 1780.2472,-1908.8854 1780.2472,-1920.8874 1841.3089,-1920.8874 1841.3089,-2144.2804 1604.4987,-2144.2804 1604.4987,-1920.8874 1669.8414,-1920.8874 1669.8414,-1908.8854 1533.5858,-1908.8854 1533.5858,-1920.8874 1592.4967,-1920.8874 1592.4967,-2144.2804 1364.2692,-2144.2804 1364.2692,-1920.8874 1423.1801,-1920.8874 1423.1801,-1908.8854 1293.3564,-1908.8854 1293.3564,-1920.8874 1352.2672,-1920.8874 1352.2672,-2144.2804 1127.456,-2144.2804 1127.456,-1920.8874 1182.9506,-1920.8874 1182.9506,-1908.8854 1127.456,-1908.8854 1127.456,-1222.9568 1127.4569,-1222.9568 1127.4478,-1045.7411 1115.4458,-1045.7418 1115.4549,-1222.9564 793.3671,-1222.9564 793.3671,-1234.9564 844.7642,-1234.9564 844.7642,-1634.9564 513.9847,-1634.9564 513.9847,-1234.9564 558.7668,-1234.9564 558.7668,-1222.9564 445.3213,-1222.9564 445.3213,-947.1444 148.7119,-947.1444 148.7119,-245.2889 145.1919,-245.2889 145.1919,-515.7814 140.1919,-515.7814 140.1919,-245.2889 136.7119,-245.2889 136.7119,-898.3913 136.7118,-898.3913 136.7118,-1681.8581 -280.6108,-1687.2829 -292.6108,-1687.2829 -292.6108,-1687.296 -811.1942,-1687.8634 -1212.6815,-1687.8634 -1212.6815,-898.3713 -1212.6814,-898.3713 -1212.6814,25.493 -177.9595,25.493 -177.9595,-902.4928 -165.9575,-902.4928 -165.9575,952.858 -177.9595,952.858 -177.9595,37.495 -1212.6814,37.495 -1212.6814,976.857 -1212.6815,976.857 -1212.6815,1766.3491 -811.1942,1766.3491 -292.6108,1765.7817 -292.6108,1765.7686 -280.6108,1765.7686 136.7118,1760.3438 136.7118,976.877 136.7119,976.877 136.7119,295.6961 140.2119,295.6961 140.2119,566.1886 145.2119,566.1886 145.2119,295.6961 148.7119,295.6961 148.7119,952.857 408.9264,952.857 408.9264,968.097 151.9518,968.097 151.9518,2217.3618 -1227.9215,2217.3618 -1227.9215,961.617 -1227.9214,961.617 -1227.9214,37.495 -1228.327,37.495 -1228.327,25.493 -1227.9214,25.493 -1227.9214,-883.1313 -1227.9215,-883.1313 -1227.9215,-2138.8761 151.9518,-2138.8761 151.9518,-1238.1964 498.7447,-1238.1964 498.7447,-1650.1964 860.0042,-1650.1964 860.0042,-1238.1964 1112.216,-1238.1964 1112.216,-1908.8854 1112.0378,-1908.8854 1112.0378,-2144.2814 1112.216,-2144.2814 1112.216,-2159.5204 2589.2382,-2159.5204 2589.2382,-1238.1964 3079.8468,-1238.1964 3079.8468,-1411.5218 3342.8457,-1411.5218 3342.8457,-1238.1964 3634.6986,-1238.1964 3634.6986,-1650.1964 4312.073,-1650.1964 4312.073,-1238.1964 4594.3626,-1238.1964 4594.3626,-1411.5218 4857.3614,-1411.5218 4857.3614,-1238.1964 5526.6443,-1238.1964 5526.6443,-1908.8854 5526.4661,-1908.8854 5526.4661,-1920.8874 5526.4662,-1920.8874 5526.4662,-2144.2814 5526.6443,-2144.2814 5526.6443,-2159.5204 7003.6666,-2159.5204 7003.6666,-1238.1964 7245.8448,-1238.1964 7245.8448,-1650.1964 7676.3248,-1650.1964 7676.3248,-1238.1964 8205.6582,-1238.1964 8205.6582,-2138.8761 9585.5315,-2138.8761 9585.5315,-883.1313 9585.4878,-883.1313 9585.4878,968.097 9570.2041,968.097 9570.2041,952.857 9570.2478,952.857 9570.2478,567.1869 8535.5696,567.1869 8535.5696,988.858 8523.5676,988.858 8523.5676,-511.4542 8519.8793,-511.4542 8519.8793,-523.4562 8523.5676,-523.4562 8523.5676,-902.4928 8535.5696,-902.4928 8535.5696,-523.4562 9570.2478,-523.4562 9570.2478,-874.3513 9570.2915,-874.3513 9570.2915,-1687.8634 9168.7891,-1687.8634 9168.7891,-1687.8635 8650.2209,-1687.296 8650.2209,-1687.2829 8638.2209,-1687.2829 8220.8982,-1681.8581 8220.8982,-245.2889 8217.3982,-245.2889 8217.3982,-515.7814 8212.3982,-515.7814 8212.3982,-245.2889 8208.8982,-245.2889 8208.8982,-874.3703 7937.3608,-874.3703 7932.2228,-1222.9564 7614.0033,-1222.9564 7614.0033,-1234.9564 7661.0848,-1234.9564 7661.0848,-1634.9564 7261.0848,-1634.9564 7261.0848,-1234.9564 7293.1243,-1234.9564 7293.1243,-1222.9564 7001.5511,-1222.9564 7001.5511,-779.6005 6989.5491,-779.6005 z M8638.0649,1789.7696 L8220.8982,1784.3468 8220.8982,2214.1218 8638.2189,2214.1218 8638.2189,1789.7706 8638.2058,1789.7706 8638.2187,1777.9366 z M8650.2209,1789.7837 L8650.2209,2214.1218 9180.7758,2214.1218 9180.7758,1790.3511 9168.7891,1790.3511 z M9192.7778,1790.3511 L9192.7778,2214.1218 9570.2915,2214.1218 9570.2915,1790.3511 z M-1212.6815,1778.3511 L-1212.6815,2202.1218 -835.1677,2202.1218 -835.1677,1778.3511 z M-823.1657,2202.1218 L-292.6108,2202.1218 -292.6108,1777.7837 -811.179,1778.3511 -823.1657,1778.3511 z M-280.5957,1777.7706 L-280.6088,1777.7706 -280.6088,2202.1218 136.7118,2202.1218 136.7118,1772.3468 -280.4548,1777.7696 -280.6086,1765.9366 z M8212.4182,566.1886 L8217.4182,566.1886 8217.4182,295.6961 8220.8982,295.6961 8220.8982,968.097 7620.1079,968.097 7620.1079,952.857 8208.8982,952.857 8208.8982,295.6961 8212.4182,295.6961 z M4347.1526,964.857 L4347.1525,964.857 4347.1525,952.857 4347.1526,952.857 z M3936.5869,964.857 L3936.5085,964.857 3936.5085,952.857 3936.5869,952.857 z M6438.2965,604.867 L6438.2965,668.5543 6426.2945,668.5543 6426.2945,604.8801 4982.8779,606.2126 4982.8681,595.6104 4982.5168,637.2655 4970.5152,637.1643 4970.8783,594.1094 4982.8786,594.2106 6438.2854,592.867 z M8535.5696,-511.4542 L8535.5696,555.1849 9570.2478,555.1849 9570.2478,-511.4542 z M3979.2761,-783.5179 L3979.2751,-783.5179 3979.2751,-795.5199 3979.2761,-795.5199 z M8196.8982,-886.3723 L8196.8982,-1222.9564 7944.2261,-1222.9564 7949.1872,-886.3723 z M148.7119,-1222.9564 L148.7119,-959.1464 433.3193,-959.1464 433.3193,-1222.9564 z M4311.7179,-1222.9564 L4311.7179,-999.7646 4595.149,-999.7646 4595.149,-1222.9564 z M3344.3447,-1222.9564 L3344.3447,-1014.2965 3636.8342,-1014.2965 3636.8342,-1222.9564 z M-280.6088,-2123.6361 L-280.6088,-1699.2849 -280.5957,-1699.2849 -280.6086,-1687.4509 -280.4548,-1699.2839 136.7118,-1693.8611 136.7118,-2123.6361 z M8220.8982,-2123.6361 L8220.8982,-1693.8611 8638.0649,-1699.2839 8638.2187,-1687.4509 8638.2058,-1699.2849 8638.2189,-1699.2849 8638.2189,-2123.6361 z M8650.2209,-2123.6361 L8650.2209,-1699.298 9168.7891,-1699.8654 9180.7758,-1699.8654 9180.7758,-2123.6361 z M-292.6108,-2123.6361 L-823.1657,-2123.6361 -823.1657,-1699.8654 -811.179,-1699.8654 -292.6108,-1699.298 z M9192.7778,-2123.6361 L9192.7778,-1699.8654 9570.2915,-1699.8654 9570.2915,-2123.6361 z M-1212.6815,-2123.6361 L-1212.6815,-1699.8654 -835.1677,-1699.8654 -835.1677,-2123.6361 z"/>
</g><g transform="translate(0,0.17104) scale(0.49991) translate(1228.327,2194.24775)" stroke="#000000" stroke-width="0.6001" fill="none">
<path d="M7237.3623,1006.4234 L7630.4594,1006.4234 7630.4594,1315.9924 7237.3523,1315.9924 7237.3523,1262.421 6876.1329,1262.421 6876.1329,952.852 7237.3623,952.852 z M631.0048,1006.4234 L882.7904,1006.4234 882.7904,1315.9924 630.9948,1315.9924 630.9948,1262.421 406.1859,1262.421 406.1859,952.852 631.0048,952.852 z"/>
</g><g transform="translate(0,0.17104) scale(0.49991) translate(1228.327,2194.24775)" stroke="#000000" stroke-width="0.6001" stroke-dasharray="5.0,5.0" fill="none">
<line x1="882.78542" y1="1290.04952" x2="630.99977" y2="1290.04952"/>

<line x1="882.78542" y1="1264.11164" x2="630.99977" y2="1264.11164"/>

<line x1="882.78542" y1="1238.17375" x2="630.99977" y2="1238.17375"/>

<line x1="882.78542" y1="1212.23586" x2="630.99977" y2="1212.23586"/>

<line x1="882.78542" y1="1186.29797" x2="630.99977" y2="1186.29797"/>

<line x1="882.78542" y1="1160.36009" x2="630.99977" y2="1160.36009"/>

<line x1="882.78542" y1="1134.4222" x2="630.99977" y2="1134.4222"/>

<line x1="882.78542" y1="1108.48431" x2="630.99977" y2="1108.48431"/>

<line x1="882.78542" y1="1082.54643" x2="630.99977" y2="1082.54643"/>

<line x1="882.78542" y1="1056.60854" x2="630.99977" y2="1056.60854"/>

<line x1="882.78542" y1="1030.67065" x2="630.99977" y2="1030.67065"/>

<line x1="756.89259" y1="1006.42842" x2="756.89259" y2="1315.98741"/>

<line x1="766.89259" y1="1300.98741" x2="756.89259" y2="1315.98741"/>

<line x1="746.89259" y1="1300.98741" x2="756.89259" y2="1315.98741"/>

<line x1="406.19087" y1="978.79488" x2="630.99977" y2="978.79488"/>

<line x1="406.19087" y1="1004.73276" x2="630.99977" y2="1004.73276"/>

<line x1="406.19087" y1="1030.67065" x2="630.99977" y2="1030.67065"/>

<line x1="406.19087" y1="1056.60854" x2="630.99977" y2="1056.60854"/>

<line x1="406.19087" y1="1082.54643" x2="630.99977" y2="1082.54643"/>

<line x1="406.19087" y1="1108.48431" x2="630.99977" y2="1108.48431"/>

<line x1="406.19087" y1="1134.4222" x2="630.99977" y2="1134.4222"/>

<line x1="406.19087" y1="1160.36009" x2="630.99977" y2="1160.36009"/>

<line x1="406.19087" y1="1186.29797" x2="630.99977" y2="1186.29797"/>

<line x1="406.19087" y1="1212.23586" x2="630.99977" y2="1212.23586"/>

<line x1="406.19087" y1="1238.17375" x2="630.99977" y2="1238.17375"/>

<line x1="518.59532" y1="1262.41598" x2="518.59532" y2="952.85699"/>

<line x1="508.59532" y1="967.85699" x2="518.59532" y2="952.85699"/>

<line x1="528.59532" y1="967.85699" x2="518.59532" y2="952.85699"/>

<line x1="6876.13794" y1="978.79489" x2="7237.3573" y2="978.79489"/>

<line x1="6876.13794" y1="1004.73277" x2="7237.3573" y2="1004.73277"/>

<line x1="6876.13794" y1="1030.67066" x2="7237.3573" y2="1030.67066"/>

<line x1="6876.13794" y1="1056.60855" x2="7237.3573" y2="1056.60855"/>

<line x1="6876.13794" y1="1082.54644" x2="7237.3573" y2="1082.54644"/>

<line x1="6876.13794" y1="1108.48432" x2="7237.3573" y2="1108.48432"/>

<line x1="6876.13794" y1="1134.42221" x2="7237.3573" y2="1134.42221"/>

<line x1="6876.13794" y1="1160.3601" x2="7237.3573" y2="1160.3601"/>

<line x1="6876.13794" y1="1186.29798" x2="7237.3573" y2="1186.29798"/>

<line x1="6876.13794" y1="1212.23587" x2="7237.3573" y2="1212.23587"/>

<line x1="6876.13794" y1="1238.17376" x2="7237.3573" y2="1238.17376"/>

<line x1="7056.74762" y1="1262.41599" x2="7056.74762" y2="952.857"/>

<line x1="7046.74762" y1="967.857" x2="7056.74762" y2="952.857"/>

<line x1="7066.74762" y1="967.857" x2="7056.74762" y2="952.857"/>

<line x1="7630.45442" y1="1290.04953" x2="7237.3573" y2="1290.04953"/>

<line x1="7630.45442" y1="1264.11165" x2="7237.3573" y2="1264.11165"/>

<line x1="7630.45442" y1="1238.17376" x2="7237.3573" y2="1238.17376"/>

<line x1="7630.45442" y1="1212.23587" x2="7237.3573" y2="1212.23587"/>

<line x1="7630.45442" y1="1186.29798" x2="7237.3573" y2="1186.29798"/>

<line x1="7630.45442" y1="1160.3601" x2="7237.3573" y2="1160.3601"/>

<line x1="7630.45442" y1="1134.42221" x2="7237.3573" y2="1134.42221"/>

<line x1="7630.45442" y1="1108.48432" x2="7237.3573" y2="1108.48432"/>

<line x1="7630.45442" y1="1082.54644" x2="7237.3573" y2="1082.54644"/>

<line x1="7630.45442" y1="1056.60855" x2="7237.3573" y2="1056.60855"/>

<line x1="7630.45442" y1="1030.67066" x2="7237.3573" y2="1030.67066"/>

<line x1="7433.90586" y1="1006.42843" x2="7433.90586" y2="1315.98742"/>

<line x1="7443.90586" y1="1300.98742" x2="7433.90586" y2="1315.98742"/>

<line x1="7423.90586" y1="1300.98742" x2="7433.90586" y2="1315.98742"/>
</g><g transform="translate(0,0.17104) scale(0.49991) translate(1228.327,2194.24775)" stroke="#000000" stroke-width="0.6001" opacity="1" fill="none">
<line x1="2585.99819" y1="952.857" x2="3936.50852" y2="952.857"/>

<line x1="3936.50852" y1="964.85699" x2="2585.99819" y2="964.85699"/>

<line x1="3936.5869" y1="952.857" x2="4347.1525" y2="952.857"/>

<line x1="4347.1525" y1="964.85699" x2="3936.5869" y2="964.85699"/>

<line x1="4347.1526" y1="952.857" x2="4967.75311" y2="952.857"/>

<line x1="4967.75311" y1="964.85699" x2="4347.1526" y2="964.85699"/>

<line x1="1844.7271" y1="-1210.9564" x2="1127.45597" y2="-1210.9564"/>

<line x1="1127.45597" y1="-1234.9564" x2="1844.7271" y2="-1234.9564"/>

<path d="M1669.84139,-1919.88637 L1780.24716,-1919.88637"/>

<path d="M1780.24716,-1909.88637 L1775.24716,-1909.88637 1775.24716,-1919.88637"/>

<path d="M1669.84139,-1909.88637 L1674.84139,-1909.88637 1674.84139,-1919.88637 1745.83899,-1990.88397"/>

<path d="M1775.24716,-1919.88637 C1775.24716,-1946.51564 1764.66873,-1972.05424 1745.83899,-1990.88397"/>

<path d="M1674.84139,-1919.88637 L1678.37692,-1916.35084 1749.28644,-1987.26035"/>

<path d="M1423.18006,-1919.88637 L1533.58583,-1919.88637"/>

<path d="M1533.58583,-1909.88637 L1528.58583,-1909.88637 1528.58583,-1919.88637"/>

<path d="M1423.18006,-1909.88637 L1428.18006,-1909.88637 1428.18006,-1919.88637 1499.17766,-1990.88397"/>

<path d="M1528.58583,-1919.88637 C1528.58583,-1946.51564 1518.0074,-1972.05424 1499.17766,-1990.88397"/>

<path d="M1428.18006,-1919.88637 L1431.71559,-1916.35084 1502.62511,-1987.26035"/>

<path d="M1182.95063,-1919.88637 L1293.3564,-1919.88637"/>

<path d="M1293.3564,-1909.88637 L1288.3564,-1909.88637 1288.3564,-1919.88637"/>

<path d="M1182.95063,-1909.88637 L1187.95063,-1909.88637 1187.95063,-1919.88637 1258.94823,-1990.88397"/>

<path d="M1288.3564,-1919.88637 C1288.3564,-1946.51564 1277.77797,-1972.05424 1258.94823,-1990.88397"/>

<path d="M1187.95063,-1919.88637 L1191.48616,-1916.35084 1262.39568,-1987.26035"/>

<line x1="2573.99823" y1="-1222.9564" x2="1856.7271" y2="-1222.9564"/>

<line x1="1856.7271" y1="-1234.9564" x2="2573.99823" y2="-1234.9564"/>

<path d="M2399.11252,-1919.88637 L2509.51829,-1919.88637"/>

<path d="M2509.51829,-1909.88637 L2504.51829,-1909.88637 2504.51829,-1919.88637"/>

<path d="M2399.11252,-1909.88637 L2404.11252,-1909.88637 2404.11252,-1919.88637 2475.11012,-1990.88397"/>

<path d="M2504.51829,-1919.88637 C2504.51829,-1946.51564 2493.93986,-1972.05424 2475.11012,-1990.88397"/>

<path d="M2404.11252,-1919.88637 L2407.64805,-1916.35084 2478.55757,-1987.26035"/>

<path d="M2152.45119,-1919.88637 L2262.85696,-1919.88637"/>

<path d="M2262.85696,-1909.88637 L2257.85696,-1909.88637 2257.85696,-1919.88637"/>

<path d="M2152.45119,-1909.88637 L2157.45119,-1909.88637 2157.45119,-1919.88637 2228.44879,-1990.88397"/>

<path d="M2257.85696,-1919.88637 C2257.85696,-1946.51564 2247.27853,-1972.05424 2228.44879,-1990.88397"/>

<path d="M2157.45119,-1919.88637 L2160.98672,-1916.35084 2231.89624,-1987.26035"/>

<path d="M1912.22176,-1919.88637 L2022.62753,-1919.88637"/>

<path d="M2022.62753,-1909.88637 L2017.62753,-1909.88637 2017.62753,-1919.88637"/>

<path d="M1912.22176,-1909.88637 L1917.22176,-1909.88637 1917.22176,-1919.88637 1988.21936,-1990.88397"/>

<path d="M2017.62753,-1919.88637 C2017.62753,-1946.51564 2007.0491,-1972.05424 1988.21936,-1990.88397"/>

<path d="M1917.22176,-1919.88637 L1920.75729,-1916.35084 1991.66681,-1987.26035"/>

<line x1="5709.02434" y1="952.857" x2="6426.29547" y2="952.857"/>

<line x1="6426.29547" y1="964.857" x2="5709.02434" y2="964.857"/>

<line x1="6259.15545" y1="-1222.9564" x2="5541.88432" y2="-1222.9564"/>

<line x1="5541.88432" y1="-1234.9564" x2="6259.15545" y2="-1234.9564"/>

<path d="M6084.26974,-1919.88637 L6194.67551,-1919.88637"/>

<path d="M6194.67551,-1909.88637 L6189.67551,-1909.88637 6189.67551,-1919.88637"/>

<path d="M6084.26974,-1909.88637 L6089.26974,-1909.88637 6089.26974,-1919.88637 6160.26734,-1990.88397"/>

<path d="M6189.67551,-1919.88637 C6189.67551,-1946.51564 6179.09708,-1972.05424 6160.26734,-1990.88397"/>

<path d="M6089.26974,-1919.88637 L6092.80527,-1916.35084 6163.71479,-1987.26035"/>

<path d="M5837.60841,-1919.88637 L5948.01418,-1919.88637"/>

<path d="M5948.01418,-1909.88637 L5943.01418,-1909.88637 5943.01418,-1919.88637"/>

<path d="M5837.60841,-1909.88637 L5842.60841,-1909.88637 5842.60841,-1919.88637 5913.60601,-1990.88397"/>

<path d="M5943.01418,-1919.88637 C5943.01418,-1946.51564 5932.43575,-1972.05424 5913.60601,-1990.88397"/>

<path d="M5842.60841,-1919.88637 L5846.14394,-1916.35084 5917.05346,-1987.26035"/>

<path d="M5597.37898,-1919.88637 L5707.78475,-1919.88637"/>

<path d="M5707.78475,-1909.88637 L5702.78475,-1909.88637 5702.78475,-1919.88637"/>

<path d="M5597.37898,-1909.88637 L5602.37898,-1909.88637 5602.37898,-1919.88637 5673.37658,-1990.88397"/>

<path d="M5702.78475,-1919.88637 C5702.78475,-1946.51564 5692.20632,-1972.05424 5673.37658,-1990.88397"/>

<path d="M5602.37898,-1919.88637 L5605.91451,-1916.35084 5676.82403,-1987.26035"/>

<line x1="6988.42658" y1="-1222.9564" x2="6271.15545" y2="-1222.9564"/>

<line x1="6271.15545" y1="-1234.95641" x2="6988.42658" y2="-1234.95641"/>

<path d="M6813.54087,-1919.88638 L6923.94664,-1919.88638"/>

<path d="M6923.94664,-1909.88638 L6918.94664,-1909.88638 6918.94664,-1919.88638"/>

<path d="M6813.54087,-1909.88638 L6818.54087,-1909.88638 6818.54087,-1919.88638 6889.53847,-1990.88398"/>

<path d="M6918.94664,-1919.88638 C6918.94664,-1946.51565 6908.36821,-1972.05425 6889.53847,-1990.88398"/>

<path d="M6818.54087,-1919.88638 L6822.0764,-1916.35085 6892.98592,-1987.26036"/>

<path d="M6566.87954,-1919.88638 L6677.28531,-1919.88638"/>

<path d="M6677.28531,-1909.88638 L6672.28531,-1909.88638 6672.28531,-1919.88638"/>

<path d="M6566.87954,-1909.88638 L6571.87954,-1909.88638 6571.87954,-1919.88638 6642.87714,-1990.88398"/>

<path d="M6672.28531,-1919.88638 C6672.28531,-1946.51565 6661.70688,-1972.05425 6642.87714,-1990.88398"/>

<path d="M6571.87954,-1919.88638 L6575.41507,-1916.35085 6646.32459,-1987.26036"/>

<path d="M6326.65011,-1919.88638 L6437.05588,-1919.88638"/>

<path d="M6437.05588,-1909.88638 L6432.05588,-1909.88638 6432.05588,-1919.88638"/>

<path d="M6326.65011,-1909.88638 L6331.65011,-1909.88638 6331.65011,-1919.88638 6402.64771,-1990.88398"/>

<path d="M6432.05588,-1919.88638 C6432.05588,-1946.51565 6421.47745,-1972.05425 6402.64771,-1990.88398"/>

<path d="M6331.65011,-1919.88638 L6335.18564,-1916.35085 6406.09516,-1987.26036"/>

<line x1="1127.45593" y1="952.857" x2="1844.65033" y2="952.857"/>

<line x1="1844.65033" y1="976.857" x2="1127.45593" y2="976.857"/>

<path d="M1302.34163,1986.69236 L1191.93586,1986.69236"/>

<path d="M1191.93586,1976.69236 L1196.93586,1976.69236 1196.93586,1986.69236"/>

<path d="M1302.34163,1976.69236 L1297.34163,1976.69236 1297.34163,1986.69236 1226.34403,2057.68996"/>

<path d="M1196.93586,1986.69236 C1196.93586,2013.32163 1207.51429,2038.86023 1226.34403,2057.68996"/>

<path d="M1297.34163,1986.69236 L1293.8061,1983.15683 1222.89658,2054.06634"/>

<path d="M1561.00296,1986.69236 L1450.59719,1986.69236"/>

<path d="M1450.59719,1976.69236 L1455.59719,1976.69236 1455.59719,1986.69236"/>

<path d="M1561.00296,1976.69236 L1556.00296,1976.69236 1556.00296,1986.69236 1485.00536,2057.68996"/>

<path d="M1455.59719,1986.69236 C1455.59719,2013.32163 1466.17562,2038.86023 1485.00536,2057.68996"/>

<path d="M1556.00296,1986.69236 L1552.46743,1983.15683 1481.55791,2054.06634"/>

<path d="M1773.81523,1986.69236 L1663.40946,1986.69236"/>

<path d="M1663.40946,1976.69236 L1668.40946,1976.69236 1668.40946,1986.69236"/>

<path d="M1773.81523,1976.69236 L1768.81523,1976.69236 1768.81523,1986.69236 1697.81763,2057.68996"/>

<path d="M1668.40946,1986.69236 C1668.40946,2013.32163 1678.98789,2038.86023 1697.81763,2057.68996"/>

<path d="M1768.81523,1986.69236 L1765.2797,1983.15683 1694.37018,2054.06634"/>

<line x1="1856.72706" y1="952.857" x2="2573.99819" y2="952.857"/>

<line x1="2573.99819" y1="976.857" x2="1856.72706" y2="976.857"/>

<path d="M2031.61276,1986.69236 L1921.20699,1986.69236"/>

<path d="M1921.20699,1976.69236 L1926.20699,1976.69236 1926.20699,1986.69236"/>

<path d="M2031.61276,1976.69236 L2026.61276,1976.69236 2026.61276,1986.69236 1955.61516,2057.68996"/>

<path d="M1926.20699,1986.69236 C1926.20699,2013.32163 1936.78542,2038.86023 1955.61516,2057.68996"/>

<path d="M2026.61276,1986.69236 L2023.07723,1983.15683 1952.16771,2054.06634"/>

<path d="M2290.27409,1986.69236 L2179.86832,1986.69236"/>

<path d="M2179.86832,1976.69236 L2184.86832,1976.69236 2184.86832,1986.69236"/>

<path d="M2290.27409,1976.69236 L2285.27409,1976.69236 2285.27409,1986.69236 2214.27649,2057.68996"/>

<path d="M2184.86832,1986.69236 C2184.86832,2013.32163 2195.44675,2038.86023 2214.27649,2057.68996"/>

<path d="M2285.27409,1986.69236 L2281.73856,1983.15683 2210.82904,2054.06634"/>

<path d="M2503.08636,1986.69236 L2392.68059,1986.69236"/>

<path d="M2392.68059,1976.69236 L2397.68059,1976.69236 2397.68059,1986.69236"/>

<path d="M2503.08636,1976.69236 L2498.08636,1976.69236 2498.08636,1986.69236 2427.08876,2057.68996"/>

<path d="M2397.68059,1986.69236 C2397.68059,2013.32163 2408.25902,2038.86023 2427.08876,2057.68996"/>

<path d="M2498.08636,1986.69236 L2494.55083,1983.15683 2423.64131,2054.06634"/>

<line x1="4979.75321" y1="952.857" x2="5697.02434" y2="952.857"/>

<line x1="5697.02434" y1="964.857" x2="4979.75321" y2="964.857"/>

<path d="M136.71184,969.857 L-167.65555,969.857"/>

<path d="M-167.65555,959.857 L-162.65555,959.857 -162.65555,969.857"/>

<path d="M136.71184,959.857 L131.71184,959.857 131.71184,969.857 131.71184,1264.22439 C-30.86278,1264.22439 -162.65555,1132.43162 -162.65555,969.857"/>

<line x1="126.71184" y1="969.857" x2="126.71184" y2="1264.18192"/>

<path d="M136.71184,-897.3713 L-167.65555,-897.3713"/>

<path d="M-167.65555,-887.3713 L-162.65555,-887.3713 -162.65555,-897.3713"/>

<path d="M136.71184,-887.3713 L131.71184,-887.3713 131.71184,-897.3713 131.71184,-1191.73869 C-30.86278,-1191.73869 -162.65555,-1059.94593 -162.65555,-897.3713"/>

<line x1="126.71184" y1="-897.3713" x2="126.71184" y2="-1191.69623"/>

<path d="M144.7119,160.44987 L144.7119,430.94238 140.7119,430.94238 140.7119,160.44987 z"/>

<path d="M144.7119,-380.53515 L144.7119,-110.04264 140.7119,-110.04264 140.7119,-380.53515 z"/>

<path d="M8220.89823,-891.37131 L8525.26562,-891.37131"/>

<path d="M8525.26562,-881.37131 L8520.26562,-881.37131 8520.26562,-891.37131"/>

<path d="M8220.89823,-881.37131 L8225.89823,-881.37131 8225.89823,-891.37131 8225.89823,-1185.7387 C8388.47285,-1185.7387 8520.26562,-1053.94593 8520.26562,-891.37131"/>

<line x1="8230.89823" y1="-891.37131" x2="8230.89823" y2="-1185.69623"/>

<line x1="3093.427" y1="-1234.95639" x2="3157.98563" y2="-1234.95639"/>

<line x1="3157.98563" y1="-1222.9564" x2="3093.427" y2="-1222.9564"/>

<line x1="3650.19763" y1="-1234.9564" x2="3966.2283" y2="-1234.9564"/>

<line x1="3966.2283" y1="-1222.9564" x2="3650.19763" y2="-1222.9564"/>

<line x1="3978.4412" y1="-1234.9564" x2="4297.64444" y2="-1234.9564"/>

<line x1="4297.64444" y1="-1222.9564" x2="3978.4412" y2="-1222.9564"/>

<line x1="4757.0504" y1="-1234.9564" x2="4838.20595" y2="-1234.9564"/>

<line x1="4838.20595" y1="-1222.9564" x2="4757.0504" y2="-1222.9564"/>

<line x1="7293.1243" y1="-1234.9564" x2="7614.00327" y2="-1234.9564"/>

<line x1="7614.00327" y1="-1222.9564" x2="7293.1243" y2="-1222.9564"/>

<line x1="7620.10787" y1="968.097" x2="6867.91178" y2="968.097"/>

<line x1="6867.91178" y1="952.857" x2="7620.10787" y2="952.857"/>

<line x1="861.0772" y1="968.097" x2="408.92643" y2="968.097"/>

<line x1="408.92643" y1="952.857" x2="861.0772" y2="952.857"/>

<line x1="558.76682" y1="-1234.9564" x2="793.36712" y2="-1234.9564"/>

<line x1="793.36712" y1="-1222.9564" x2="558.76682" y2="-1222.9564"/>

<path d="M1124.09379,543.82397 L1124.09379,778.42427"/>

<path d="M1114.09379,778.42427 L1114.09379,773.42427 1124.09379,773.42427"/>

<path d="M1114.09379,543.82397 L1114.09379,548.82397 1124.09379,548.82397 1348.69409,548.82397 C1348.69409,672.86729 1248.13711,773.42427 1124.09379,773.42427"/>

<line x1="1124.09379" y1="553.82397" x2="1348.63843" y2="553.82397"/>

<path d="M2574.99819,566.53244 L2574.99819,751.86162"/>

<path d="M2584.99819,751.86162 L2584.99819,746.86162 2574.99819,746.86162"/>

<path d="M2584.99819,566.53244 L2584.99819,571.53244 2574.99819,571.53244 2399.66901,571.53244 C2399.66901,668.36407 2478.16656,746.86162 2574.99819,746.86162"/>

<line x1="2574.99819" y1="576.53244" x2="2399.74032" y2="576.53244"/>

<path d="M2575.45519,-856.58054 L2575.45519,-1057.19811"/>

<path d="M2585.45519,-1057.19811 L2585.45519,-1052.19811 2575.45519,-1052.19811"/>

<path d="M2585.45519,-856.58054 L2585.45519,-861.58054 2575.45519,-861.58054 2384.83762,-861.58054 C2384.83762,-966.85572 2470.18001,-1052.19811 2575.45519,-1052.19811"/>

<line x1="2575.45519" y1="-866.58054" x2="2384.90321" y2="-866.58054"/>

<path d="M2975.24686,-798.1549 L3095.56277,-798.1549"/>

<path d="M3095.56277,-788.1549 L3090.56277,-788.1549 3090.56277,-798.1549"/>

<path d="M2975.24686,-788.1549 L2980.24686,-788.1549 2980.24686,-798.1549 2980.24686,-908.47081 C3041.17265,-908.47081 3090.56277,-859.08069 3090.56277,-798.1549"/>

<line x1="2985.24686" y1="-798.1549" x2="2985.24686" y2="-908.35744"/>

<line x1="3645.04032" y1="-795.51892" x2="3961.07099" y2="-795.51892"/>

<line x1="3961.07099" y1="-783.51892" x2="3645.04032" y2="-783.51892"/>

<line x1="3979.27607" y1="-795.51892" x2="4295.30674" y2="-795.51892"/>

<line x1="4295.30674" y1="-783.51892" x2="3979.27607" y2="-783.51892"/>

<path d="M4974.31564,-943.31064 L4974.31564,-1063.62655"/>

<path d="M4984.31564,-1063.62655 L4984.31564,-1058.62655 4974.31564,-1058.62655"/>

<path d="M4984.31564,-943.31064 L4984.31564,-948.31064 4974.31564,-948.31064 4863.99973,-948.31064 C4863.99973,-1009.23643 4913.38985,-1058.62655 4974.31564,-1058.62655"/>

<line x1="4974.31564" y1="-953.31064" x2="4864.1131" y2="-953.31064"/>

<path d="M6989.58316,-790.60147 L6782.45623,-791.22448"/>

<path d="M6782.42615,-781.22453 L6787.42613,-781.20949 6787.4562,-791.20944"/>

<path d="M6989.55308,-780.60151 L6984.5531,-780.61655 6984.58318,-790.61651 6985.17612,-987.74348 C6876.30589,-988.07095 6787.78367,-900.07967 6787.4562,-791.20944"/>

<line x1="6979.5832" y1="-790.63155" x2="6980.17595" y2="-987.6951"/>

<path d="M4981.51585,637.25705 L4979.95301,822.57964"/>

<path d="M4969.95336,822.49532 L4969.99553,817.49549 4979.99517,817.57982"/>

<path d="M4971.5162,637.17273 L4971.47404,642.17255 4981.47368,642.25688 5156.79663,643.73539 C5155.98007,740.56358 5076.82336,818.39638 4979.99517,817.57982"/>

<line x1="4981.43152" y1="647.2567" x2="5156.68316" y2="648.73461"/>

<path d="M6427.29547,668.55429 L6427.29547,845.8594"/>

<path d="M6437.29547,845.8594 L6437.29547,840.8594 6427.29547,840.8594"/>

<path d="M6437.29547,668.55429 L6437.29547,673.55429 6427.29547,673.55429 6259.99036,673.55429 C6259.99036,765.95435 6334.89541,840.8594 6427.29547,840.8594"/>

<line x1="6427.29547" y1="678.55429" x2="6260.06509" y2="678.55429"/>

<path d="M5544.61434,-784.07179 L5542.90107,-991.19257"/>

<path d="M5532.90141,-991.10985 L5532.94277,-986.11003 5542.94243,-986.19274"/>

<path d="M5534.61468,-783.98907 L5534.57332,-788.9889 5544.57298,-789.07162 5741.69411,-790.70217 C5740.79358,-899.56916 5651.80942,-987.09327 5542.94243,-986.19274"/>

<line x1="5544.53162" y1="-794.07145" x2="5741.58933" y2="-795.70147"/>

<path d="M1126.43647,-845.12363 L1126.44679,-1045.74119"/>

<path d="M1116.44679,-1045.74171 L1116.44653,-1040.74171 1126.44653,-1040.74119"/>

<path d="M1116.43647,-845.12415 L1116.43673,-850.12415 1126.43673,-850.12363 1317.05429,-850.11383 C1317.0597,-955.389 1231.7217,-1040.73578 1126.44653,-1040.74119"/>

<line x1="1126.43699" y1="-855.12363" x2="1316.98896" y2="-855.11384"/>

<path d="M8212.8982,160.44987 L8212.8982,430.94238 8216.8982,430.94238 8216.8982,160.44987 z"/>

<path d="M8212.8982,-380.53515 L8212.8982,-110.04264 8216.8982,-110.04264 8216.8982,-380.53515 z"/>
</g><g transform="translate(0,0.17104) scale(0.49991) translate(1228.327,2194.24775)" stroke="#ffffff" stroke-width="0.6001" opacity="1" fill="none">
<path d="M882.78542,952.85699 L630.99977,952.85699 630.99977,1315.98741 882.78542,1315.98741 z" fill="#ffffff"/>
</g><g transform="translate(0,0.17104) scale(0.49991) translate(1228.327,2194.24775)" stroke="#000000" stroke-width="0.6001" opacity="1" fill="none">
<path d="M882.78542,952.85699 L630.99977,952.85699 630.99977,1315.98741 882.78542,1315.98741 z"/>

<path d="M878.78542,952.85699 L878.78542,1315.98741"/>

<path d="M634.99977,952.85699 L634.99977,1315.98741"/>

<line x1="882.78542" y1="1290.04952" x2="630.99977" y2="1290.04952"/>

<line x1="882.78542" y1="1264.11164" x2="630.99977" y2="1264.11164"/>

<line x1="882.78542" y1="1238.17375" x2="630.99977" y2="1238.17375"/>

<line x1="882.78542" y1="1212.23586" x2="630.99977" y2="1212.23586"/>

<line x1="882.78542" y1="1186.29797" x2="630.99977" y2="1186.29797"/>

<line x1="882.78542" y1="1160.36009" x2="630.99977" y2="1160.36009"/>

<line x1="882.78542" y1="1134.4222" x2="630.99977" y2="1134.4222"/>

<line x1="882.78542" y1="1108.48431" x2="630.99977" y2="1108.48431"/>

<line x1="882.78542" y1="1082.54643" x2="630.99977" y2="1082.54643"/>

<line x1="882.78542" y1="1056.60854" x2="630.99977" y2="1056.60854"/>

<line x1="882.78542" y1="1030.67065" x2="630.99977" y2="1030.67065"/>

<line x1="882.78542" y1="1004.73276" x2="630.99977" y2="1004.73276"/>

<line x1="882.78542" y1="978.79488" x2="630.99977" y2="978.79488"/>

<line x1="756.89259" y1="952.85699" x2="756.89259" y2="1315.98741"/>

<line x1="766.89259" y1="1300.98741" x2="756.89259" y2="1315.98741"/>

<line x1="746.89259" y1="1300.98741" x2="756.89259" y2="1315.98741"/>
</g><g transform="translate(0,0.17104) scale(0.49991) translate(1228.327,2194.24775)" stroke="#ffffff" stroke-width="0.6001" opacity="1" fill="none">
<path d="M406.19087,1315.98741 L630.99977,1315.98741 630.99977,952.85699 406.19087,952.85699 z" fill="#ffffff"/>
</g><g transform="translate(0,0.17104) scale(0.49991) translate(1228.327,2194.24775)" stroke="#000000" stroke-width="0.6001" opacity="1" fill="none">
<path d="M406.19087,1315.98741 L630.99977,1315.98741 630.99977,952.85699 406.19087,952.85699 z"/>

<path d="M410.19087,1315.98741 L410.19087,952.85699"/>

<path d="M626.99977,1315.98741 L626.99977,952.85699"/>

<line x1="406.19087" y1="978.79488" x2="630.99977" y2="978.79488"/>

<line x1="406.19087" y1="1004.73276" x2="630.99977" y2="1004.73276"/>

<line x1="406.19087" y1="1030.67065" x2="630.99977" y2="1030.67065"/>

<line x1="406.19087" y1="1056.60854" x2="630.99977" y2="1056.60854"/>

<line x1="406.19087" y1="1082.54643" x2="630.99977" y2="1082.54643"/>

<line x1="406.19087" y1="1108.48431" x2="630.99977" y2="1108.48431"/>

<line x1="406.19087" y1="1134.4222" x2="630.99977" y2="1134.4222"/>

<line x1="406.19087" y1="1160.36009" x2="630.99977" y2="1160.36009"/>

<line x1="406.19087" y1="1186.29797" x2="630.99977" y2="1186.29797"/>

<line x1="406.19087" y1="1212.23586" x2="630.99977" y2="1212.23586"/>

<line x1="406.19087" y1="1238.17375" x2="630.99977" y2="1238.17375"/>

<line x1="406.19087" y1="1264.11164" x2="630.99977" y2="1264.11164"/>

<line x1="406.19087" y1="1290.04952" x2="630.99977" y2="1290.04952"/>

<line x1="518.59532" y1="1315.98741" x2="518.59532" y2="952.85699"/>

<line x1="508.59532" y1="967.85699" x2="518.59532" y2="952.85699"/>

<line x1="528.59532" y1="967.85699" x2="518.59532" y2="952.85699"/>
</g><g transform="translate(0,0.17104) scale(0.49991) translate(1228.327,2194.24775)" stroke="#ffffff" stroke-width="0.6001" opacity="1" fill="none">
<path d="M6876.13794,1315.98742 L7237.3573,1315.98742 7237.3573,952.857 6876.13794,952.857 z" fill="#ffffff"/>
</g><g transform="translate(0,0.17104) scale(0.49991) translate(1228.327,2194.24775)" stroke="#000000" stroke-width="0.6001" opacity="1" fill="none">
<path d="M6876.13794,1315.98742 L7237.3573,1315.98742 7237.3573,952.857 6876.13794,952.857 z"/>

<path d="M6880.13794,1315.98742 L6880.13794,952.857"/>

<path d="M7233.3573,1315.98742 L7233.3573,952.857"/>

<line x1="6876.13794" y1="978.79489" x2="7237.3573" y2="978.79489"/>

<line x1="6876.13794" y1="1004.73277" x2="7237.3573" y2="1004.73277"/>

<line x1="6876.13794" y1="1030.67066" x2="7237.3573" y2="1030.67066"/>

<line x1="6876.13794" y1="1056.60855" x2="7237.3573" y2="1056.60855"/>

<line x1="6876.13794" y1="1082.54644" x2="7237.3573" y2="1082.54644"/>

<line x1="6876.13794" y1="1108.48432" x2="7237.3573" y2="1108.48432"/>

<line x1="6876.13794" y1="1134.42221" x2="7237.3573" y2="1134.42221"/>

<line x1="6876.13794" y1="1160.3601" x2="7237.3573" y2="1160.3601"/>

<line x1="6876.13794" y1="1186.29798" x2="7237.3573" y2="1186.29798"/>

<line x1="6876.13794" y1="1212.23587" x2="7237.3573" y2="1212.23587"/>

<line x1="6876.13794" y1="1238.17376" x2="7237.3573" y2="1238.17376"/>

<line x1="6876.13794" y1="1264.11165" x2="7237.3573" y2="1264.11165"/>

<line x1="6876.13794" y1="1290.04953" x2="7237.3573" y2="1290.04953"/>

<line x1="7056.74762" y1="1315.98742" x2="7056.74762" y2="952.857"/>

<line x1="7046.74762" y1="967.857" x2="7056.74762" y2="952.857"/>

<line x1="7066.74762" y1="967.857" x2="7056.74762" y2="952.857"/>
</g><g transform="translate(0,0.17104) scale(0.49991) translate(1228.327,2194.24775)" stroke="#ffffff" stroke-width="0.6001" opacity="1" fill="none">
<path d="M7630.45442,952.857 L7237.3573,952.857 7237.3573,1315.98742 7630.45442,1315.98742 z" fill="#ffffff"/>
</g><g transform="translate(0,0.17104) scale(0.49991) translate(1228.327,2194.24775)" stroke="#000000" stroke-width="0.6001" opacity="1" fill="none">
<path d="M7630.45442,952.857 L7237.3573,952.857 7237.3573,1315.98742 7630.45442,1315.98742 z"/>

<path d="M7626.45442,952.857 L7626.45442,1315.98742"/>

<path d="M7241.3573,952.857 L7241.3573,1315.98742"/>

<line x1="7630.45442" y1="1290.04953" x2="7237.3573" y2="1290.04953"/>

<line x1="7630.45442" y1="1264.11165" x2="7237.3573" y2="1264.11165"/>

<line x1="7630.45442" y1="1238.17376" x2="7237.3573" y2="1238.17376"/>

<line x1="7630.45442" y1="1212.23587" x2="7237.3573" y2="1212.23587"/>

<line x1="7630.45442" y1="1186.29798" x2="7237.3573" y2="1186.29798"/>

<line x1="7630.45442" y1="1160.3601" x2="7237.3573" y2="1160.3601"/>

<line x1="7630.45442" y1="1134.42221" x2="7237.3573" y2="1134.42221"/>

<line x1="7630.45442" y1="1108.48432" x2="7237.3573" y2="1108.48432"/>

<line x1="7630.45442" y1="1082.54644" x2="7237.3573" y2="1082.54644"/>

<line x1="7630.45442" y1="1056.60855" x2="7237.3573" y2="1056.60855"/>

<line x1="7630.45442" y1="1030.67066" x2="7237.3573" y2="1030.67066"/>

<line x1="7630.45442" y1="1004.73277" x2="7237.3573" y2="1004.73277"/>

<line x1="7630.45442" y1="978.79489" x2="7237.3573" y2="978.79489"/>

<line x1="7433.90586" y1="952.857" x2="7433.90586" y2="1315.98742"/>

<line x1="7443.90586" y1="1300.98742" x2="7433.90586" y2="1315.98742"/>

<line x1="7423.90586" y1="1300.98742" x2="7433.90586" y2="1315.98742"/>
</g><g transform="translate(0,0.17104) scale(0.49991) translate(5628.82083,3450.62879)" stroke="#dddddd" stroke-width="0.6001" opacity="1" fill="none">
<path d="M-429.5,-150 L429.5,-150 429.5,150 -429.5,150 z" fill="#202022"/>
</g><g transform="translate(0,0.17104) scale(0.49991) translate(5628.82083,3450.62879)" stroke="#000000" stroke-width="0.6001" opacity="1" fill="none">
<path d="M-429.5,-150 L429.5,-150 429.5,150 -429.5,150 z"/>
</g>
<a id="refer3"><g transform="translate(0,0.17104) scale(0.49991) translate(5628.82083,3550.62879)" stroke="#dddddd" stroke-width="0.6001" opacity="1" fill="none">
<text y="-20" font-size="100" stroke="black" stroke-width="0.30005" fill="white" text-anchor="middle"> LIBRARY</text>

<text y="-120" font-size="100" stroke="black" stroke-width="0.30005" fill="white" text-anchor="middle">DEPARTMENTAL</text>
</g> </a>
<g transform="translate(0,0.17104) scale(0.49991) translate(4437.5214,3440.2284)" stroke="#dddddd" stroke-width="0.6001" opacity="1" fill="none">
<path d="M-337,-150 L337,-150 337,150 -337,150 z" fill="#202022"/>
</g><g transform="translate(0,0.17104) scale(0.49991) translate(4437.5214,3440.2284)" stroke="#000000" stroke-width="0.6001" opacity="1" fill="none">
<path d="M-337,-150 L337,-150 337,150 -337,150 z"/>
</g>
<a id="refer4"><g transform="translate(0,0.17104) scale(0.49991) translate(4437.5214,3515.2284)" stroke="#dddddd" stroke-width="0.6001" opacity="1" fill="none">
<text y="-30" font-size="150" stroke="black" stroke-width="0.30005" fill="white" text-anchor="middle">6404FC</text>
</g> </a>
<g transform="translate(0,0.17104) scale(0.49991) translate(2735.5965,624.55078)" stroke="#dddddd" stroke-width="0.6001" opacity="1" fill="none">
<path d="M-247,-225 L247,-225 247,225 -247,225 z" fill="#202022"/>
</g><g transform="translate(0,0.17104) scale(0.49991) translate(2735.5965,624.55078)" stroke="#000000" stroke-width="0.6001" opacity="1" fill="none">
<path d="M-247,-225 L247,-225 247,225 -247,225 z"/>
</g>
<a id="refer9"><g transform="translate(0,0.17104) scale(0.49991) translate(2735.5965,774.55078)" stroke="#dddddd" stroke-width="0.6001" opacity="1" fill="none">
<text y="-30" font-size="150" stroke="black" stroke-width="0.30005" fill="white" text-anchor="middle">CR</text>

<text y="-180" font-size="150" stroke="black" stroke-width="0.30005" fill="white" text-anchor="middle">6409</text>
</g></a>
<g transform="translate(0,0.17104) scale(0.49991) translate(3428.66862,624.55078)" stroke="#dddddd" stroke-width="0.6001" opacity="1" fill="none">
<path d="M-247,-225 L247,-225 247,225 -247,225 z" fill="#202022"/>
</g><g transform="translate(0,0.17104) scale(0.49991) translate(3428.66862,624.55078)" stroke="#000000" stroke-width="0.6001" opacity="1" fill="none">
<path d="M-247,-225 L247,-225 247,225 -247,225 z"/>
</g>
<a id="refer10"><g transform="translate(0,0.17104) scale(0.49991) translate(3428.66862,774.55078)" stroke="#dddddd" stroke-width="0.6001" opacity="1" fill="none">
<text y="-30" font-size="150" stroke="black" stroke-width="0.30005" fill="white" text-anchor="middle">FC</text>

<text y="-180" font-size="150" stroke="black" stroke-width="0.30005" fill="white" text-anchor="middle">6410</text>
</g> </a>
<g transform="translate(0,0.17104) scale(0.49991) translate(7269.94592,3683.0995)" stroke="#dddddd" stroke-width="0.6001" opacity="1" fill="none">
<path d="M-247,-225 L247,-225 247,225 -247,225 z" fill="#202022"/>
</g><g transform="translate(0,0.17104) scale(0.49991) translate(7269.94592,3683.0995)" stroke="#000000" stroke-width="0.6001" opacity="1" fill="none">
<path d="M-247,-225 L247,-225 247,225 -247,225 z"/>
</g>
<a id="refer1"><g transform="translate(0,0.17104) scale(0.49991) translate(7269.94592,3833.0995)" stroke="#dddddd" stroke-width="0.6001" opacity="1" fill="none">
<text y="-30" font-size="150" stroke="black" stroke-width="0.30005" fill="white" text-anchor="middle">CR</text>

<text y="-180" font-size="150" stroke="black" stroke-width="0.30005" fill="white" text-anchor="middle">6401</text>
</g></a>
<g transform="translate(0,0.17104) scale(0.49991) translate(7130.17969,619.93665)" stroke="#dddddd" stroke-width="0.6001" opacity="1" fill="none">
<path d="M-294.5,-225 L294.5,-225 294.5,225 -294.5,225 z" fill="#202022"/>
</g><g transform="translate(0,0.17104) scale(0.49991) translate(7130.17969,619.93665)" stroke="#000000" stroke-width="0.6001" opacity="1" fill="none">
<path d="M-294.5,-225 L294.5,-225 294.5,225 -294.5,225 z"/>
</g>
<a id="refer15"><g transform="translate(0,0.17104) scale(0.49991) translate(7130.17969,769.93665)" stroke="#dddddd" stroke-width="0.6001" opacity="1" fill="none">
<text y="-30" font-size="150" stroke="black" stroke-width="0.30005" fill="white" text-anchor="middle">(IOT)</text>

<text y="-180" font-size="150" stroke="black" stroke-width="0.30005" fill="white" text-anchor="middle">B.VOC</text>
</g></a><g transform="translate(0,0.17104) scale(0.49991) translate(7854.46763,637.19881)" stroke="#dddddd" stroke-width="0.6001" opacity="1" fill="none">
<path d="M-247,-225 L247,-225 247,225 -247,225 z" fill="#202022"/>
</g><g transform="translate(0,0.17104) scale(0.49991) translate(7854.46763,637.19881)" stroke="#000000" stroke-width="0.6001" opacity="1" fill="none">
<path d="M-247,-225 L247,-225 247,225 -247,225 z"/>
</g>
<a id="refer16"><g transform="translate(0,0.17104) scale(0.49991) translate(7854.46763,787.19881)" stroke="#dddddd" stroke-width="0.6001" opacity="1" fill="none">
<text y="-30" font-size="150" stroke="black" stroke-width="0.30005" fill="white" text-anchor="middle">CR</text>

<text y="-180" font-size="150" stroke="black" stroke-width="0.30005" fill="white" text-anchor="middle">6416</text>
</g></a>
<g transform="translate(0,0.17104) scale(0.49991) translate(2735.5965,3538.51942)" stroke="#dddddd" stroke-width="0.6001" opacity="1" fill="none">
<path d="M-247,-225 L247,-225 247,225 -247,225 z" fill="#202022"/>
</g><g transform="translate(0,0.17104) scale(0.49991) translate(2735.5965,3538.51942)" stroke="#000000" stroke-width="0.6001" opacity="1" fill="none">
<path d="M-247,-225 L247,-225 247,225 -247,225 z"/>
</g>
<a id="refer6"><g transform="translate(0,0.17104) scale(0.49991) translate(2735.5965,3688.51942)" stroke="#dddddd" stroke-width="0.6001" opacity="1" fill="none">
<text y="-30" font-size="150" stroke="black" stroke-width="0.30005" fill="white" text-anchor="middle">CR</text>

<text y="-180" font-size="150" stroke="black" stroke-width="0.30005" fill="white" text-anchor="middle">6406</text>
</g></a>
<g transform="translate(0,0.17104) scale(0.49991) translate(3428.66862,3538.51942)" stroke="#dddddd" stroke-width="0.6001" opacity="1" fill="none">
<path d="M-247,-225 L247,-225 247,225 -247,225 z" fill="#202022"/>
</g><g transform="translate(0,0.17104) scale(0.49991) translate(3428.66862,3538.51942)" stroke="#000000" stroke-width="0.6001" opacity="1" fill="none">
<path d="M-247,-225 L247,-225 247,225 -247,225 z"/>
</g>
<a id="refer5"><g transform="translate(0,0.17104) scale(0.49991) translate(3428.66862,3688.51942)" stroke="#dddddd" stroke-width="0.6001" opacity="1" fill="none">
<text y="-30" font-size="150" stroke="black" stroke-width="0.30005" fill="white" text-anchor="middle">CR</text>

<text y="-180" font-size="150" stroke="black" stroke-width="0.30005" fill="white" text-anchor="middle">6405</text>
</g></a><g transform="translate(0,0.17104) scale(0.49991) translate(6560.47751,3683.0995)" stroke="#dddddd" stroke-width="0.6001" opacity="1" fill="none">
<path d="M-247,-225 L247,-225 247,225 -247,225 z" fill="#202022"/>
</g><g transform="translate(0,0.17104) scale(0.49991) translate(6560.47751,3683.0995)" stroke="#000000" stroke-width="0.6001" opacity="1" fill="none">
<path d="M-247,-225 L247,-225 247,225 -247,225 z"/>
</g>
<a id="refer2"><g transform="translate(0,0.17104) scale(0.49991) translate(6560.47751,3833.0995)" stroke="#dddddd" stroke-width="0.6001" opacity="1" fill="none">
<text y="-30" font-size="150" stroke="black" stroke-width="0.30005" fill="white" text-anchor="middle">CR</text>

<text y="-180" font-size="150" stroke="black" stroke-width="0.30005" fill="white" text-anchor="middle">6402</text>
</g></a>
<g transform="translate(0,0.17104) scale(0.49991) translate(562.10539,3206.99013)" stroke="#dddddd" stroke-width="0.6001" opacity="1" fill="none">
<path d="M-300,678 L-300,-678 300,-678 300,678 z" fill="#202022"/>
</g><g transform="translate(0,0.17104) scale(0.49991) translate(562.10539,3206.99013)" stroke="#000000" stroke-width="0.6001" opacity="1" fill="none">
<path d="M-300,678 L-300,-678 300,-678 300,678 z"/>
</g>
<a id="refer7"><g transform="translate(0,0.17104) scale(0.49991) translate(562.10539,3206.99013) rotate(-90) translate(0,150)" stroke="#dddddd" stroke-width="0.6001" opacity="1" fill="none">
<text y="-60" font-size="300" stroke="black" stroke-width="0.30005" fill="white" text-anchor="middle">6407LA</text>
</g></a><g transform="translate(0,0.17104) scale(0.49991) translate(562.10539,1421.02148)" stroke="#dddddd" stroke-width="0.6001" opacity="1" fill="none">
<path d="M-300,678 L-300,-678 300,-678 300,678 z" fill="#202022"/>
</g><g transform="translate(0,0.17104) scale(0.49991) translate(562.10539,1421.02148)" stroke="#000000" stroke-width="0.6001" opacity="1" fill="none">
<path d="M-300,678 L-300,-678 300,-678 300,678 z"/>
</g>
<a id="refer8">
<g transform="translate(0,0.17104) scale(0.49991) translate(562.10539,1421.02148) rotate(-90) translate(0,150)" stroke="#dddddd" stroke-width="0.6001" opacity="1" fill="none">
<text y="-60" font-size="300" stroke="black" stroke-width="0.30005" fill="white" text-anchor="middle">6408LA</text>
</g></a>
<g transform="translate(0,0.17104) scale(0.49991) translate(10115.75679,3534.9938)" stroke="#dddddd" stroke-width="0.6001" opacity="1" fill="none">
<path d="M-564,-250 L564,-250 564,250 -564,250 z" fill="#202022"/>
</g><g transform="translate(0,0.17104) scale(0.49991) translate(10115.75679,3534.9938)" stroke="#000000" stroke-width="0.6001" opacity="1" fill="none">
<path d="M-564,-250 L564,-250 564,250 -564,250 z"/>
</g>
<a id="refer18"><g transform="translate(0,0.17104) scale(0.49991) translate(10115.75679,3659.9938)" stroke="#dddddd" stroke-width="0.6001" opacity="1" fill="none">
<text y="-50" font-size="250" stroke="black" stroke-width="0.30005" fill="white" text-anchor="middle">6418LA</text>
</g></a>
<g transform="translate(0,0.17104) scale(0.49991) translate(10115.75679,847.07208)" stroke="#dddddd" stroke-width="0.6001" opacity="1" fill="none">
<path d="M-564,-250 L564,-250 564,250 -564,250 z" fill="#202022"/>
</g><g transform="translate(0,0.17104) scale(0.49991) translate(10115.75679,847.07208)" stroke="#000000" stroke-width="0.6001" opacity="1" fill="none">
<path d="M-564,-250 L564,-250 564,250 -564,250 z"/>
</g>
<a id="refer17"><g transform="translate(0,0.17104) scale(0.49991) translate(10115.75679,972.07208)" stroke="#dddddd" stroke-width="0.6001" opacity="1" fill="none">
<text y="-50" font-size="250" stroke="black" stroke-width="0.30005" fill="white" text-anchor="middle">6417LA</text>
</g></a>
<g transform="translate(0,0.17104) scale(0.49991) translate(4347.5214,1645.48874)" stroke="#dddddd" stroke-width="0.6001" opacity="1" fill="none">
<path d="M-337,-150 L337,-150 337,150 -337,150 z" fill="#202022"/>
</g><g transform="translate(0,0.17104) scale(0.49991) translate(4347.5214,1645.48874)" stroke="#000000" stroke-width="0.6001" opacity="1" fill="none">
<path d="M-337,-150 L337,-150 337,150 -337,150 z"/>
</g> <a id="refer11">
<g transform="translate(0,0.17104) scale(0.49991) translate(4347.5214,1720.48874)" stroke="#dddddd" stroke-width="0.6001" opacity="1" fill="none">
<text y="-30" font-size="150" stroke="black" stroke-width="0.30005" fill="white" text-anchor="middle">6411FC</text>
</g></a>
<g transform="translate(0,0.17104) scale(0.49991) translate(4986.34693,1645.48874)" stroke="#dddddd" stroke-width="0.6001" opacity="1" fill="none">
<path d="M-247,-150 L247,-150 247,150 -247,150 z" fill="#202022"/>
</g><g transform="translate(0,0.17104) scale(0.49991) translate(4986.34693,1645.48874)" stroke="#000000" stroke-width="0.6001" opacity="1" fill="none">
<path d="M-247,-150 L247,-150 247,150 -247,150 z"/>
</g> <a id="refer12">
<g transform="translate(0,0.17104) scale(0.49991) translate(4986.34693,1720.48874)" stroke="#dddddd" stroke-width="0.6001" opacity="1" fill="none">
<text y="-30" font-size="150" stroke="black" stroke-width="0.30005" fill="white" text-anchor="middle">6412</text>
</g></a>
<g transform="translate(0,0.17104) scale(0.49991) translate(5539.80872,1645.48874)" stroke="#dddddd" stroke-width="0.6001" opacity="1" fill="none">
<path d="M-247,-150 L247,-150 247,150 -247,150 z" fill="#202022"/>
</g><g transform="translate(0,0.17104) scale(0.49991) translate(5539.80872,1645.48874)" stroke="#000000" stroke-width="0.6001" opacity="1" fill="none">
<path d="M-247,-150 L247,-150 247,150 -247,150 z"/>
</g> <a id="refer13">
<g transform="translate(0,0.17104) scale(0.49991) translate(5539.80872,1720.48874)" stroke="#dddddd" stroke-width="0.6001" opacity="1" fill="none">
<text y="-30" font-size="150" stroke="black" stroke-width="0.30005" fill="white" text-anchor="middle">6413</text>
</g></a>
<g transform="translate(0,0.17104) scale(0.49991) translate(6223.47751,1645.48874)" stroke="#dddddd" stroke-width="0.6001" opacity="1" fill="none">
<path d="M-337,-150 L337,-150 337,150 -337,150 z" fill="#202022"/>
</g><g transform="translate(0,0.17104) scale(0.49991) translate(6223.47751,1645.48874)" stroke="#000000" stroke-width="0.6001" opacity="1" fill="none">
<path d="M-337,-150 L337,-150 337,150 -337,150 z"/>
</g>
<a id="refer14"><g transform="translate(0,0.17104) scale(0.49991) translate(6223.47751,1720.48874)" stroke="#dddddd" stroke-width="0.6001" opacity="1" fill="none">
<text y="-30" font-size="150" stroke="black" stroke-width="0.30005" fill="white" text-anchor="middle">6414FC</text>
</g></a>
<g transform="translate(0,0.17104) scale(0.49991) translate(8718.23458,1320.50958)" stroke="#dddddd" stroke-width="0.6001" opacity="1" fill="none">
<path d="M-319.5,-225 L319.5,-225 319.5,225 -319.5,225 z" fill="#202022"/>
</g><g transform="translate(0,0.17104) scale(0.49991) translate(8718.23458,1320.50958)" stroke="#000000" stroke-width="0.6001" opacity="1" fill="none">
<path d="M-319.5,-225 L319.5,-225 319.5,225 -319.5,225 z"/>
</g>
<a id="refer20"><g transform="translate(0,0.17104) scale(0.49991) translate(8718.23458,1470.50958)" stroke="#dddddd" stroke-width="0.6001" opacity="1" fill="none">
<text y="-30" font-size="150" stroke="black" stroke-width="0.30005" fill="white" text-anchor="middle">Lift</text>

<text y="-180" font-size="150" stroke="black" stroke-width="0.30005" fill="white" text-anchor="middle">Faculty</text>
</g></a>
<g transform="translate(0,0.17104) scale(0.49991) translate(9182.31466,2233.5791)" stroke="#dddddd" stroke-width="0.6001" opacity="1" fill="none">
<path d="M150,-543 L150,543 -150,543 -150,-543 z" fill="#202022"/>
</g><g transform="translate(0,0.17104) scale(0.49991) translate(9182.31466,2233.5791)" stroke="#000000" stroke-width="0.6001" opacity="1" fill="none">
<path d="M150,-543 L150,543 -150,543 -150,-543 z"/>
</g>
<a id="refer22"><g transform="translate(0,0.17104) scale(0.49991) translate(9182.31466,2233.5791) rotate(90) translate(0,75)" stroke="#dddddd" stroke-width="0.6001" opacity="1" fill="none">
<text y="-30" font-size="150" stroke="black" stroke-width="0.30005" fill="white" text-anchor="middle">PHYSICS LAB</text>
</g></a>
<g transform="translate(0,0.17104) scale(0.49991) translate(1676.96562,2155.77609)" stroke="#dddddd" stroke-width="0.6001" opacity="1" fill="none">
<path d="M-150,650 L-150,-650 150,-650 150,650 z" fill="#202022"/>
</g><g transform="translate(0,0.17104) scale(0.49991) translate(1676.96562,2155.77609)" stroke="#000000" stroke-width="0.6001" opacity="1" fill="none">
<path d="M-150,650 L-150,-650 150,-650 150,650 z"/>
</g>
<a id="refer23"><g transform="translate(0,0.17104) scale(0.49991) translate(1676.96562,2155.77609) rotate(270) translate(0,75)" stroke="#dddddd" stroke-width="0.6001" opacity="1" fill="none">
<text y="-30" font-size="150" stroke="black" stroke-width="0.30005" fill="white" text-anchor="middle">CHEMISTRY LAB</text>
</g> </a><g transform="translate(0,0.17104) scale(0.49991) translate(10290.25679,2233.5791)" stroke="#dddddd" stroke-width="0.6001" opacity="1" fill="none">
<path d="M-389.5,-300 L389.5,-300 389.5,300 -389.5,300 z" fill="#202022"/>
</g><g transform="translate(0,0.17104) scale(0.49991) translate(10290.25679,2233.5791)" stroke="#000000" stroke-width="0.6001" opacity="1" fill="none">
<path d="M-389.5,-300 L389.5,-300 389.5,300 -389.5,300 z"/>
</g>
<a id="refer19"><g transform="translate(0,0.17104) scale(0.49991) translate(10290.25679,2433.5791)" stroke="#dddddd" stroke-width="0.6001" opacity="1" fill="none">
<text y="-40" font-size="200" stroke="black" stroke-width="0.30005" fill="white" text-anchor="middle">ROOM</text>

<text y="-240" font-size="200" stroke="black" stroke-width="0.30005" fill="white" text-anchor="middle">DARK</text>
</g> </a>
<g transform="translate(0,0.17104) scale(0.49991) translate(1903.38554,247.5)" stroke="#dddddd" stroke-width="0.6001" opacity="1" fill="none">
<path d="M-371,-225 L371,-225 371,225 -371,225 z" fill="#202022"/>
</g><g transform="translate(0,0.17104) scale(0.49991) translate(1903.38554,247.5)" stroke="#000000" stroke-width="0.6001" opacity="1" fill="none">
<path d="M-371,-225 L371,-225 371,225 -371,225 z"/>
</g>
<a id="refer21"><g transform="translate(0,0.17104) scale(0.49991) translate(1903.38554,397.5)" stroke="#dddddd" stroke-width="0.6001" opacity="1" fill="none">
<text y="-30" font-size="150" stroke="black" stroke-width="0.30005" fill="white" text-anchor="middle">Lift</text>

<text y="-180" font-size="150" stroke="black" stroke-width="0.30005" fill="white" text-anchor="middle">common</text></g></a> </g>
</svg>